<?xml version="1.0" encoding="UTF-8" standalone="no"?>
<!-- Created with Inkscape (http://www.inkscape.org/) -->

<svg
   xmlns:dc="http://purl.org/dc/elements/1.1/"
   xmlns:cc="http://creativecommons.org/ns#"
   xmlns:rdf="http://www.w3.org/1999/02/22-rdf-syntax-ns#"
   xmlns:svg="http://www.w3.org/2000/svg"
   xmlns="http://www.w3.org/2000/svg"
   xmlns:xlink="http://www.w3.org/1999/xlink"
   xmlns:sodipodi="http://sodipodi.sourceforge.net/DTD/sodipodi-0.dtd"
   xmlns:inkscape="http://www.inkscape.org/namespaces/inkscape"
   version="1.0"
   width="96"
   height="96"
   id="svg2408"
   inkscape:version="0.48.3.1 r9886"
   sodipodi:docname="boot.svg">
  <sodipodi:namedview
     pagecolor="#ffffff"
     bordercolor="#666666"
     borderopacity="1"
     objecttolerance="10"
     gridtolerance="10"
     guidetolerance="10"
     inkscape:pageopacity="0"
     inkscape:pageshadow="2"
     inkscape:window-width="1024"
     inkscape:window-height="687"
     id="namedview116"
     showgrid="false"
     inkscape:zoom="1"
     inkscape:cx="-130.36695"
     inkscape:cy="65.258199"
     inkscape:window-x="0"
     inkscape:window-y="27"
     inkscape:window-maximized="1"
     inkscape:current-layer="svg2408" />
  <defs
     id="defs2410">
    <linearGradient
       id="linearGradient4091">
      <stop
         offset="0"
         style="stop-color:#ffffff;stop-opacity:1"
         id="stop4093" />
      <stop
         offset="1"
         style="stop-color:#ffcc00;stop-opacity:1"
         id="stop4095" />
    </linearGradient>
    <linearGradient
       inkscape:collect="always"
       id="linearGradient4031">
      <stop
         style="stop-color:#ffebd5;stop-opacity:1;"
         offset="0"
         id="stop4033" />
      <stop
         style="stop-color:#ffebd5;stop-opacity:0;"
         offset="1"
         id="stop4035" />
    </linearGradient>
    <linearGradient
       id="linearGradient3455">
      <stop
         id="stop3457"
         style="stop-color:#e20800;stop-opacity:0"
         offset="0" />
      <stop
         id="stop3463"
         style="stop-color:#e20800;stop-opacity:0.50196081"
         offset="0.5" />
      <stop
         id="stop3459"
         style="stop-color:#e20800;stop-opacity:0"
         offset="1" />
    </linearGradient>
    <radialGradient
       cx="66.961128"
       cy="71.272087"
       r="31.272085"
       fx="66.961128"
       fy="71.272087"
       id="radialGradient3331"
       xlink:href="#linearGradient3455"
       gradientUnits="userSpaceOnUse" />
    <linearGradient
       id="linearGradient3298">
      <stop
         id="stop3300"
         style="stop-color:#f9f9f9;stop-opacity:1"
         offset="0" />
      <stop
         id="stop3302"
         style="stop-color:#232323;stop-opacity:1"
         offset="1" />
    </linearGradient>
    <linearGradient
       id="linearGradient3306">
      <stop
         id="stop3308"
         style="stop-color:#b7b7b7;stop-opacity:1"
         offset="0" />
      <stop
         id="stop3310"
         style="stop-color:#4b4b4b;stop-opacity:1"
         offset="1" />
    </linearGradient>
    <linearGradient
       id="linearGradient3376">
      <stop
         id="stop3378"
         style="stop-color:#ffffff;stop-opacity:1"
         offset="0" />
      <stop
         id="stop3380"
         style="stop-color:#ffffff;stop-opacity:0"
         offset="1" />
    </linearGradient>
    <linearGradient
       id="linearGradient3368">
      <stop
         id="stop3370"
         style="stop-color:#ffffff;stop-opacity:1"
         offset="0" />
      <stop
         id="stop3372"
         style="stop-color:#ffffff;stop-opacity:0"
         offset="1" />
    </linearGradient>
    <linearGradient
       id="linearGradient3316">
      <stop
         id="stop3318"
         style="stop-color:#ffd52f;stop-opacity:1"
         offset="0" />
      <stop
         id="stop3324"
         style="stop-color:#ff7700;stop-opacity:1"
         offset="0.1" />
      <stop
         id="stop3227"
         style="stop-color:#f53900;stop-opacity:1"
         offset="0.175" />
      <stop
         id="stop3225"
         style="stop-color:#eb4200;stop-opacity:1"
         offset="0.28" />
      <stop
         id="stop3326"
         style="stop-color:#d71e00;stop-opacity:1"
         offset="0.34999999" />
      <stop
         id="stop3320"
         style="stop-color:#000000;stop-opacity:1"
         offset="1" />
    </linearGradient>
    <filter
       x="-0.12240602"
       y="-0.12271357"
       width="1.244812"
       height="1.2454271"
       color-interpolation-filters="sRGB"
       id="filter3443">
      <feGaussianBlur
         id="feGaussianBlur3445"
         stdDeviation="0.6359375" />
    </filter>
    <filter
       x="-0.087777846"
       y="-0.25215164"
       width="1.1755557"
       height="1.5043033"
       color-interpolation-filters="sRGB"
       id="filter3236">
      <feGaussianBlur
         id="feGaussianBlur3238"
         stdDeviation="0.51546625" />
    </filter>
    <filter
       x="-0.10829268"
       y="-0.15504763"
       width="1.2165854"
       height="1.3100952"
       color-interpolation-filters="sRGB"
       id="filter3439">
      <feGaussianBlur
         id="feGaussianBlur3441"
         stdDeviation="0.6359375" />
    </filter>
    <filter
       x="-0.12302267"
       y="-0.12333333"
       width="1.2460454"
       height="1.2466667"
       color-interpolation-filters="sRGB"
       id="filter3435">
      <feGaussianBlur
         id="feGaussianBlur3437"
         stdDeviation="0.6359375" />
    </filter>
    <linearGradient
       id="linearGradient3360">
      <stop
         id="stop3362"
         style="stop-color:#ffffff;stop-opacity:1"
         offset="0" />
      <stop
         id="stop3364"
         style="stop-color:#ffffff;stop-opacity:0"
         offset="1" />
    </linearGradient>
    <linearGradient
       id="linearGradient3187">
      <stop
         id="stop3189"
         style="stop-color:#1f1c24;stop-opacity:1"
         offset="0" />
      <stop
         id="stop3191"
         style="stop-color:#9d93ac;stop-opacity:1"
         offset="1" />
    </linearGradient>
    <linearGradient
       x1="45.447727"
       y1="92.539597"
       x2="45.447727"
       y2="7.0165396"
       id="ButtonShadow"
       gradientUnits="userSpaceOnUse"
       gradientTransform="scale(1.0058652,0.994169)">
      <stop
         id="stop3750"
         style="stop-color:#000000;stop-opacity:1"
         offset="0" />
      <stop
         id="stop3752"
         style="stop-color:#000000;stop-opacity:0.58823532"
         offset="1" />
    </linearGradient>
    <linearGradient
       id="linearGradient3737">
      <stop
         id="stop3739"
         style="stop-color:#ffffff;stop-opacity:1"
         offset="0" />
      <stop
         id="stop3741"
         style="stop-color:#ffffff;stop-opacity:0"
         offset="1" />
    </linearGradient>
    <linearGradient
       x1="48"
       y1="90"
       x2="48"
       y2="5.9877172"
       id="linearGradient3706"
       xlink:href="#linearGradient3187"
       gradientUnits="userSpaceOnUse" />
    <filter
       color-interpolation-filters="sRGB"
       id="filter3174">
      <feGaussianBlur
         id="feGaussianBlur3176"
         stdDeviation="1.71" />
    </filter>
    <linearGradient
       x1="36.357143"
       y1="6"
       x2="36.357143"
       y2="63.893143"
       id="linearGradient3188"
       xlink:href="#linearGradient3737"
       gradientUnits="userSpaceOnUse" />
    <linearGradient
       x1="74.260582"
       y1="39.106514"
       x2="74.260582"
       y2="103.49709"
       id="linearGradient3582"
       xlink:href="#linearGradient3306"
       gradientUnits="userSpaceOnUse" />
    <linearGradient
       x1="58.000988"
       y1="39.106514"
       x2="58.000988"
       y2="103.49709"
       id="linearGradient3584"
       xlink:href="#linearGradient3298"
       gradientUnits="userSpaceOnUse" />
    <radialGradient
       cx="66.961128"
       cy="71.272087"
       r="31.272085"
       fx="66.961128"
       fy="71.272087"
       id="radialGradient3592"
       xlink:href="#linearGradient3316"
       gradientUnits="userSpaceOnUse" />
    <radialGradient
       cx="47.171875"
       cy="55.9375"
       r="6.234375"
       fx="47.171875"
       fy="55.9375"
       id="radialGradient3594"
       xlink:href="#linearGradient3360"
       gradientUnits="userSpaceOnUse"
       gradientTransform="matrix(0.574909,-0.566788,0.7002997,0.7103337,-19.120677,43.293015)" />
    <radialGradient
       cx="47.314224"
       cy="57.106339"
       r="6.234375"
       fx="47.314224"
       fy="57.106339"
       id="radialGradient3596"
       xlink:href="#linearGradient3360"
       gradientUnits="userSpaceOnUse"
       gradientTransform="matrix(0.574909,-0.566788,0.7002997,0.7103337,-17.121789,42.793293)" />
    <radialGradient
       cx="64.109375"
       cy="46.56916"
       r="7.046875"
       fx="64.109375"
       fy="46.56916"
       id="radialGradient3598"
       xlink:href="#linearGradient3360"
       gradientUnits="userSpaceOnUse"
       gradientTransform="matrix(1,0,0,0.6465223,0,17.573481)" />
    <radialGradient
       cx="64.125"
       cy="49.689838"
       r="7.046875"
       fx="64.125"
       fy="49.689838"
       id="radialGradient3600"
       xlink:href="#linearGradient3360"
       gradientUnits="userSpaceOnUse"
       gradientTransform="matrix(1,0,0,0.8238073,0,11.066494)" />
    <radialGradient
       cx="80.953117"
       cy="56.062504"
       r="6.203125"
       fx="80.953117"
       fy="56.062504"
       id="radialGradient3602"
       xlink:href="#linearGradient3360"
       gradientUnits="userSpaceOnUse"
       gradientTransform="matrix(0.6012497,0.5411612,-0.6673045,0.7413995,69.690847,-28.957541)" />
    <radialGradient
       cx="80.953117"
       cy="56.062504"
       r="6.203125"
       fx="80.953117"
       fy="56.062504"
       id="radialGradient3604"
       xlink:href="#linearGradient3360"
       gradientUnits="userSpaceOnUse"
       gradientTransform="matrix(0.6012497,0.5411612,-0.6673045,0.7413995,68.441542,-28.457819)" />
    <radialGradient
       cx="64"
       cy="106.58851"
       r="8.84375"
       fx="64"
       fy="106.58851"
       id="radialGradient3614"
       xlink:href="#linearGradient3360"
       gradientUnits="userSpaceOnUse"
       gradientTransform="matrix(0.7715809,0,0,0.4983083,-1.3811829,20.050127)" />
    <radialGradient
       cx="86.421333"
       cy="96.219612"
       r="5"
       fx="86.421333"
       fy="96.219612"
       id="radialGradient3617"
       xlink:href="#linearGradient3368"
       gradientUnits="userSpaceOnUse"
       gradientTransform="matrix(0.5806148,-0.6542138,0.5913938,0.524862,-40.906315,71.639728)" />
    <radialGradient
       cx="41.458435"
       cy="96.22155"
       r="5"
       fx="41.458435"
       fy="96.22155"
       id="radialGradient3620"
       xlink:href="#linearGradient3376"
       gradientUnits="userSpaceOnUse"
       gradientTransform="matrix(0.6078737,0.5724371,-0.5420876,0.5756455,56.784146,-13.518132)" />
    <linearGradient
       id="linearGradient3737-6">
      <stop
         id="stop3739-4"
         style="stop-color:#ffffff;stop-opacity:1"
         offset="0" />
      <stop
         id="stop3741-9"
         style="stop-color:#ffffff;stop-opacity:0"
         offset="1" />
    </linearGradient>
    <radialGradient
       cx="48"
       cy="90.171875"
       r="42"
       fx="48"
       fy="90.171875"
       id="radialGradient2874"
       xlink:href="#linearGradient3737-6"
       gradientUnits="userSpaceOnUse"
       gradientTransform="matrix(1.1573129,0,0,0.99590774,-7.551021,0.1971319)" />
    <linearGradient
       id="linearGradient3737-7">
      <stop
         id="stop3739-7"
         style="stop-color:#ffffff;stop-opacity:1"
         offset="0" />
      <stop
         id="stop3741-6"
         style="stop-color:#ffffff;stop-opacity:0"
         offset="1" />
    </linearGradient>
    <clipPath
       id="clipPath3613">
      <rect
         width="84"
         height="84"
         rx="6"
         ry="6"
         x="6"
         y="6"
         id="rect3615"
         style="fill:#ffffff;fill-opacity:1;fill-rule:nonzero;stroke:none" />
    </clipPath>
    <filter
       x="-0.192"
       y="-0.192"
       width="1.3839999"
       height="1.3839999"
       color-interpolation-filters="sRGB"
       id="filter3794">
      <feGaussianBlur
         id="feGaussianBlur3796"
         stdDeviation="5.28" />
    </filter>
    <linearGradient
       x1="48"
       y1="20.220806"
       x2="48"
       y2="138.66119"
       id="linearGradient2862"
       xlink:href="#linearGradient3737-7"
       gradientUnits="userSpaceOnUse" />
    <linearGradient
       x1="45.447727"
       y1="92.539597"
       x2="45.447727"
       y2="7.0165396"
       id="ButtonShadow-0"
       gradientUnits="userSpaceOnUse"
       gradientTransform="matrix(1.0058652,0,0,0.994169,100,0)">
      <stop
         id="stop3750-8"
         style="stop-color:#000000;stop-opacity:1"
         offset="0" />
      <stop
         id="stop3752-5"
         style="stop-color:#000000;stop-opacity:0.58823532"
         offset="1" />
    </linearGradient>
    <linearGradient
       x1="32.251034"
       y1="6.1317081"
       x2="32.251034"
       y2="90.238609"
       id="linearGradient3780"
       xlink:href="#ButtonShadow-0"
       gradientUnits="userSpaceOnUse"
       gradientTransform="matrix(1.0238095,0,0,1.0119048,-1.1428571,-98.071429)" />
    <linearGradient
       x1="32.251034"
       y1="6.1317081"
       x2="32.251034"
       y2="90.238609"
       id="linearGradient3772"
       xlink:href="#ButtonShadow-0"
       gradientUnits="userSpaceOnUse"
       gradientTransform="matrix(1.0238095,0,0,1.0119048,-1.1428571,-98.071429)" />
    <linearGradient
       x1="32.251034"
       y1="6.1317081"
       x2="32.251034"
       y2="90.238609"
       id="linearGradient3725"
       xlink:href="#ButtonShadow-0"
       gradientUnits="userSpaceOnUse"
       gradientTransform="matrix(1.0238095,0,0,1.0119048,-1.1428571,-98.071429)" />
    <linearGradient
       x1="32.251034"
       y1="6.1317081"
       x2="32.251034"
       y2="90.238609"
       id="linearGradient3721"
       xlink:href="#ButtonShadow-0"
       gradientUnits="userSpaceOnUse"
       gradientTransform="translate(0,-97)" />
    <linearGradient
       x1="32.251034"
       y1="6.1317081"
       x2="32.251034"
       y2="90.238609"
       id="linearGradient3811"
       xlink:href="#ButtonShadow-0"
       gradientUnits="userSpaceOnUse"
       gradientTransform="matrix(1.0238095,0,0,1.0119048,-1.1428571,-98.071429)" />
    <radialGradient
       inkscape:collect="always"
       xlink:href="#linearGradient3455"
       id="radialGradient3094"
       gradientUnits="userSpaceOnUse"
       cx="66.961128"
       cy="71.272087"
       fx="66.961128"
       fy="71.272087"
       r="31.272085"
       gradientTransform="matrix(1.3430508,0,0,1.3430508,48.372886,-47.315258)" />
    <radialGradient
       inkscape:collect="always"
       xlink:href="#linearGradient3316"
       id="radialGradient3103"
       gradientUnits="userSpaceOnUse"
       cx="66.961128"
       cy="71.272087"
       fx="66.961128"
       fy="71.272087"
       r="31.272085"
       gradientTransform="matrix(0.7647153,0,0,0.7647153,-3.2061995,-6.5028552)" />
    <radialGradient
       inkscape:collect="always"
       xlink:href="#linearGradient3360"
       id="radialGradient3106"
       gradientUnits="userSpaceOnUse"
       gradientTransform="matrix(0.92423239,0,0,0.59689486,-11.906465,13.917461)"
       cx="64"
       cy="106.58851"
       fx="64"
       fy="106.58851"
       r="8.84375" />
    <radialGradient
       inkscape:collect="always"
       xlink:href="#linearGradient3368"
       id="radialGradient3109"
       gradientUnits="userSpaceOnUse"
       gradientTransform="matrix(0.69548508,-0.78364509,0.70839662,0.62870201,-59.251348,75.713677)"
       cx="86.421333"
       cy="96.219612"
       fx="86.421333"
       fy="96.219612"
       r="5" />
    <radialGradient
       inkscape:collect="always"
       xlink:href="#linearGradient3376"
       id="radialGradient3112"
       gradientUnits="userSpaceOnUse"
       gradientTransform="matrix(0.72813695,0.68568948,-0.64933556,0.68953264,57.766437,-26.292026)"
       cx="41.458435"
       cy="96.22155"
       fx="41.458435"
       fy="96.22155"
       r="5" />
    <linearGradient
       inkscape:collect="always"
       xlink:href="#linearGradient3306"
       id="linearGradient3115"
       gradientUnits="userSpaceOnUse"
       x1="74.260582"
       y1="39.106514"
       x2="74.260582"
       y2="103.49709"
       gradientTransform="matrix(1.0342031,0,0,1.0342031,-22.006994,-26.312809)" />
    <linearGradient
       inkscape:collect="always"
       xlink:href="#linearGradient3298"
       id="linearGradient3117"
       gradientUnits="userSpaceOnUse"
       x1="58.000988"
       y1="39.106514"
       x2="58.000988"
       y2="103.49709"
       gradientTransform="matrix(1.0342031,0,0,1.0342031,-22.006994,-26.312809)" />
    <radialGradient
       inkscape:collect="always"
       xlink:href="#linearGradient3360"
       id="radialGradient3135"
       gradientUnits="userSpaceOnUse"
       gradientTransform="matrix(0.6012497,0.5411612,-0.6673045,0.7413995,68.441542,-28.457819)"
       cx="80.953117"
       cy="56.062504"
       fx="80.953117"
       fy="56.062504"
       r="6.203125" />
    <radialGradient
       inkscape:collect="always"
       xlink:href="#linearGradient3360"
       id="radialGradient3137"
       gradientUnits="userSpaceOnUse"
       gradientTransform="matrix(0.6012497,0.5411612,-0.6673045,0.7413995,69.690847,-28.957541)"
       cx="80.953117"
       cy="56.062504"
       fx="80.953117"
       fy="56.062504"
       r="6.203125" />
    <radialGradient
       inkscape:collect="always"
       xlink:href="#linearGradient3360"
       id="radialGradient3139"
       gradientUnits="userSpaceOnUse"
       gradientTransform="matrix(1,0,0,0.8238073,0,11.066494)"
       cx="64.125"
       cy="49.689838"
       fx="64.125"
       fy="49.689838"
       r="7.046875" />
    <radialGradient
       inkscape:collect="always"
       xlink:href="#linearGradient3360"
       id="radialGradient3141"
       gradientUnits="userSpaceOnUse"
       gradientTransform="matrix(1,0,0,0.6465223,0,17.573481)"
       cx="64.109375"
       cy="46.56916"
       fx="64.109375"
       fy="46.56916"
       r="7.046875" />
    <radialGradient
       inkscape:collect="always"
       xlink:href="#linearGradient3360"
       id="radialGradient3143"
       gradientUnits="userSpaceOnUse"
       gradientTransform="matrix(0.574909,-0.566788,0.7002997,0.7103337,-17.121789,42.793293)"
       cx="47.314224"
       cy="57.106339"
       fx="47.314224"
       fy="57.106339"
       r="6.234375" />
    <radialGradient
       inkscape:collect="always"
       xlink:href="#linearGradient3360"
       id="radialGradient3145"
       gradientUnits="userSpaceOnUse"
       gradientTransform="matrix(0.574909,-0.566788,0.7002997,0.7103337,-19.120677,43.293015)"
       cx="47.171875"
       cy="55.9375"
       fx="47.171875"
       fy="55.9375"
       r="6.234375" />
    <linearGradient
       inkscape:collect="always"
       xlink:href="#linearGradient3306"
       id="linearGradient3154"
       gradientUnits="userSpaceOnUse"
       gradientTransform="matrix(1.0342031,0,0,1.0342031,-22.006994,-26.312809)"
       x1="74.260582"
       y1="39.106514"
       x2="74.260582"
       y2="103.49709" />
    <linearGradient
       inkscape:collect="always"
       xlink:href="#linearGradient3298"
       id="linearGradient3156"
       gradientUnits="userSpaceOnUse"
       gradientTransform="matrix(1.0342031,0,0,1.0342031,-22.006994,-26.312809)"
       x1="58.000988"
       y1="39.106514"
       x2="58.000988"
       y2="103.49709" />
    <linearGradient
       x1="16"
       y1="48"
       x2="80"
       y2="48"
       id="linearGradient3979"
       xlink:href="#linearGradient4281-6"
       gradientUnits="userSpaceOnUse"
       gradientTransform="matrix(0,1,-1,0,96,0)" />
    <linearGradient
       id="linearGradient4281-6">
      <stop
         id="stop4283-9"
         style="stop-color:#1e1e1e;stop-opacity:1"
         offset="0" />
      <stop
         id="stop4285-8"
         style="stop-color:#505050;stop-opacity:1"
         offset="1" />
    </linearGradient>
    <linearGradient
       inkscape:collect="always"
       xlink:href="#linearGradient4281-6"
       id="linearGradient3221"
       gradientUnits="userSpaceOnUse"
       gradientTransform="matrix(0,1,-1,0,96,0)"
       x1="16"
       y1="48"
       x2="80"
       y2="48" />
    <linearGradient
       inkscape:collect="always"
       xlink:href="#linearGradient4281-6"
       id="linearGradient3230"
       gradientUnits="userSpaceOnUse"
       gradientTransform="matrix(0,1,-1,0,96,0)"
       x1="16"
       y1="48"
       x2="80"
       y2="48" />
    <filter
       inkscape:collect="always"
       id="filter4023"
       x="-0.090916672"
       width="1.1818333"
       y="-0.14092138"
       height="1.2818428">
      <feGaussianBlur
         inkscape:collect="always"
         stdDeviation="1.7169626"
         id="feGaussianBlur4025" />
    </filter>
    <radialGradient
       inkscape:collect="always"
       xlink:href="#linearGradient4031"
       id="radialGradient4037"
       cx="-19.559292"
       cy="7.1202731"
       fx="-19.559292"
       fy="7.1202731"
       r="20.422203"
       gradientUnits="userSpaceOnUse" />
    <linearGradient
       inkscape:collect="always"
       xlink:href="#linearGradient3306-0"
       id="linearGradient4041"
       x1="44.338982"
       y1="22.983051"
       x2="57.762711"
       y2="41.898304"
       gradientUnits="userSpaceOnUse" />
    <linearGradient
       id="linearGradient3306-0">
      <stop
         id="stop3308-0"
         style="stop-color:#b7b7b7;stop-opacity:1"
         offset="0" />
      <stop
         id="stop3310-8"
         style="stop-color:#4b4b4b;stop-opacity:1"
         offset="1" />
    </linearGradient>
    <filter
       color-interpolation-filters="sRGB"
       inkscape:collect="always"
       id="filter4023-2"
       x="-0.090916671"
       width="1.1818333"
       y="-0.14092138"
       height="1.2818428">
      <feGaussianBlur
         inkscape:collect="always"
         stdDeviation="1.7169626"
         id="feGaussianBlur4025-8" />
    </filter>
    <linearGradient
       gradientTransform="translate(-66.936694,15.428104)"
       y2="41.898304"
       x2="57.762711"
       y1="22.983051"
       x1="44.338982"
       gradientUnits="userSpaceOnUse"
       id="linearGradient4066"
       xlink:href="#linearGradient3306-0"
       inkscape:collect="always" />
    <linearGradient
       inkscape:collect="always"
       xlink:href="#linearGradient4091"
       id="linearGradient4089"
       x1="44.296043"
       y1="28.117748"
       x2="63.567699"
       y2="45.951221"
       gradientUnits="userSpaceOnUse" />
  </defs>
  <metadata
     id="metadata2413">
    <rdf:RDF>
      <cc:Work
         rdf:about="">
        <dc:format>image/svg+xml</dc:format>
        <dc:type
           rdf:resource="http://purl.org/dc/dcmitype/StillImage" />
      </cc:Work>
    </rdf:RDF>
  </metadata>
  <g
     id="layer2"
     style="display:none">
    <rect
       width="86"
       height="85"
       rx="6"
       ry="6"
       x="5"
       y="7"
       id="rect3745"
       style="opacity:0.9;fill:url(#ButtonShadow);fill-opacity:1;fill-rule:nonzero;stroke:none;filter:url(#filter3174)" />
  </g>
  <g
     id="layer5"
     style="display:inline">
    <path
       d="m 12,-95.03125 c -5.5110903,0 -10.03125,4.52016 -10.03125,10.03125 l 0,71 c 0,5.5110902 4.5201598,10.03125 10.03125,10.03125 l 72,0 c 5.51109,0 10.03125,-4.5201597 10.03125,-10.03125 l 0,-71 c 0,-5.51109 -4.52016,-10.03125 -10.03125,-10.03125 l -72,0 z"
       transform="scale(1,-1)"
       id="path3786"
       style="opacity:0.07999998;fill:url(#linearGradient3811);fill-opacity:1;fill-rule:nonzero;stroke:none;display:inline" />
    <path
       d="m 12,-94.03125 c -4.971633,0 -9.03125,4.059617 -9.03125,9.03125 l 0,71 c 0,4.9716329 4.0596171,9.03125 9.03125,9.03125 l 72,0 c 4.971633,0 9.03125,-4.059617 9.03125,-9.03125 l 0,-71 c 0,-4.971633 -4.059617,-9.03125 -9.03125,-9.03125 l -72,0 z"
       transform="scale(1,-1)"
       id="path3778"
       style="opacity:0.1;fill:url(#linearGradient3780);fill-opacity:1;fill-rule:nonzero;stroke:none;display:inline" />
    <path
       d="m 12,-93 c -4.4091333,0 -8,3.590867 -8,8 l 0,71 c 0,4.4091333 3.5908667,8 8,8 l 72,0 c 4.409133,0 8,-3.5908667 8,-8 l 0,-71 c 0,-4.409133 -3.590867,-8 -8,-8 l -72,0 z"
       transform="scale(1,-1)"
       id="path3770"
       style="opacity:0.2;fill:url(#linearGradient3772);fill-opacity:1;fill-rule:nonzero;stroke:none;display:inline" />
    <rect
       width="86"
       height="85"
       rx="7"
       ry="7"
       x="5"
       y="-92"
       transform="scale(1,-1)"
       id="rect3723"
       style="opacity:0.3;fill:url(#linearGradient3725);fill-opacity:1;fill-rule:nonzero;stroke:none;display:inline" />
    <rect
       width="84"
       height="84"
       rx="6"
       ry="6"
       x="6"
       y="-91"
       transform="scale(1,-1)"
       id="rect3716"
       style="opacity:0.45;fill:url(#linearGradient3721);fill-opacity:1;fill-rule:nonzero;stroke:none;display:inline" />
  </g>
  <g
     id="layer1">
    <rect
       width="84"
       height="84"
       rx="6"
       ry="6"
       x="6"
       y="6"
       id="rect2419"
       style="fill:url(#linearGradient3706);fill-opacity:1;fill-rule:nonzero;stroke:none" />
    <path
       d="M 12,6 C 8.676,6 6,8.676 6,12 l 0,2 0,68 0,2 c 0,0.334721 0.04135,0.6507 0.09375,0.96875 0.0487,0.295596 0.09704,0.596915 0.1875,0.875 0.00988,0.03038 0.020892,0.0636 0.03125,0.09375 0.098865,0.287771 0.2348802,0.547452 0.375,0.8125 0.1445918,0.273507 0.3156161,0.535615 0.5,0.78125 0.1843839,0.245635 0.3737765,0.473472 0.59375,0.6875 0.439947,0.428056 0.94291,0.814526 1.5,1.09375 0.278545,0.139612 0.5734731,0.246947 0.875,0.34375 -0.2562018,-0.100222 -0.4867109,-0.236272 -0.71875,-0.375 -0.00741,-0.0044 -0.023866,0.0045 -0.03125,0 -0.031933,-0.0193 -0.062293,-0.04251 -0.09375,-0.0625 -0.120395,-0.0767 -0.2310226,-0.163513 -0.34375,-0.25 -0.1061728,-0.0808 -0.2132809,-0.161112 -0.3125,-0.25 C 8.4783201,88.557317 8.3087904,88.373362 8.15625,88.1875 8.0486711,88.057245 7.9378561,87.922215 7.84375,87.78125 7.818661,87.74287 7.805304,87.69538 7.78125,87.65625 7.716487,87.553218 7.6510225,87.451733 7.59375,87.34375 7.4927417,87.149044 7.3880752,86.928049 7.3125,86.71875 7.30454,86.69694 7.288911,86.6782 7.28125,86.65625 7.2494249,86.5643 7.2454455,86.469419 7.21875,86.375 7.1884177,86.268382 7.1483606,86.171969 7.125,86.0625 7.0521214,85.720988 7,85.364295 7,85 L 7,83 7,15 7,13 C 7,10.218152 9.2181517,8 12,8 l 2,0 68,0 2,0 c 2.781848,0 5,2.218152 5,5 l 0,2 0,68 0,2 c 0,0.364295 -0.05212,0.720988 -0.125,1.0625 -0.04415,0.206893 -0.08838,0.397658 -0.15625,0.59375 -0.0077,0.02195 -0.0233,0.04069 -0.03125,0.0625 -0.06274,0.173739 -0.138383,0.367449 -0.21875,0.53125 -0.04158,0.0828 -0.07904,0.169954 -0.125,0.25 -0.0546,0.09721 -0.126774,0.18835 -0.1875,0.28125 -0.09411,0.140965 -0.204921,0.275995 -0.3125,0.40625 -0.143174,0.17445 -0.303141,0.346998 -0.46875,0.5 -0.01117,0.0102 -0.01998,0.02115 -0.03125,0.03125 -0.138386,0.125556 -0.285091,0.234436 -0.4375,0.34375 -0.102571,0.07315 -0.204318,0.153364 -0.3125,0.21875 -0.0074,0.0045 -0.02384,-0.0044 -0.03125,0 -0.232039,0.138728 -0.462548,0.274778 -0.71875,0.375 0.301527,-0.0968 0.596455,-0.204138 0.875,-0.34375 0.55709,-0.279224 1.060053,-0.665694 1.5,-1.09375 0.219973,-0.214028 0.409366,-0.441865 0.59375,-0.6875 0.184384,-0.245635 0.355408,-0.507743 0.5,-0.78125 0.14012,-0.265048 0.276135,-0.524729 0.375,-0.8125 0.01041,-0.03078 0.02133,-0.06274 0.03125,-0.09375 0.09046,-0.278085 0.1388,-0.579404 0.1875,-0.875 C 89.95865,84.6507 90,84.334721 90,84 l 0,-2 0,-68 0,-2 C 90,8.676 87.324,6 84,6 L 12,6 z"
       inkscape:connector-curvature="0"
       id="rect3728"
       style="opacity:0.3;fill:url(#linearGradient3188);fill-opacity:1;fill-rule:nonzero;stroke:none" />
    <path
       d="M 12,90 C 8.676,90 6,87.324 6,84 L 6,82 6,14 6,12 c 0,-0.334721 0.04135,-0.6507 0.09375,-0.96875 0.0487,-0.295596 0.09704,-0.596915 0.1875,-0.875 C 6.29113,10.12587 6.302142,10.09265 6.3125,10.0625 6.411365,9.774729 6.5473802,9.515048 6.6875,9.25 6.8320918,8.976493 7.0031161,8.714385 7.1875,8.46875 7.3718839,8.223115 7.5612765,7.995278 7.78125,7.78125 8.221197,7.353194 8.72416,6.966724 9.28125,6.6875 9.559795,6.547888 9.8547231,6.440553 10.15625,6.34375 9.9000482,6.443972 9.6695391,6.580022 9.4375,6.71875 c -0.00741,0.0044 -0.023866,-0.0045 -0.03125,0 -0.031933,0.0193 -0.062293,0.04251 -0.09375,0.0625 -0.120395,0.0767 -0.2310226,0.163513 -0.34375,0.25 -0.1061728,0.0808 -0.2132809,0.161112 -0.3125,0.25 C 8.4783201,7.442683 8.3087904,7.626638 8.15625,7.8125 8.0486711,7.942755 7.9378561,8.077785 7.84375,8.21875 7.818661,8.25713 7.805304,8.30462 7.78125,8.34375 7.716487,8.446782 7.6510225,8.548267 7.59375,8.65625 7.4927417,8.850956 7.3880752,9.071951 7.3125,9.28125 7.30454,9.30306 7.288911,9.3218 7.28125,9.34375 7.2494249,9.4357 7.2454455,9.530581 7.21875,9.625 7.1884177,9.731618 7.1483606,9.828031 7.125,9.9375 7.0521214,10.279012 7,10.635705 7,11 l 0,2 0,68 0,2 c 0,2.781848 2.2181517,5 5,5 l 2,0 68,0 2,0 c 2.781848,0 5,-2.218152 5,-5 l 0,-2 0,-68 0,-2 C 89,10.635705 88.94788,10.279012 88.875,9.9375 88.83085,9.730607 88.78662,9.539842 88.71875,9.34375 88.71105,9.3218 88.69545,9.30306 88.6875,9.28125 88.62476,9.107511 88.549117,8.913801 88.46875,8.75 88.42717,8.6672 88.38971,8.580046 88.34375,8.5 88.28915,8.40279 88.216976,8.31165 88.15625,8.21875 88.06214,8.077785 87.951329,7.942755 87.84375,7.8125 87.700576,7.63805 87.540609,7.465502 87.375,7.3125 87.36383,7.3023 87.35502,7.29135 87.34375,7.28125 87.205364,7.155694 87.058659,7.046814 86.90625,6.9375 86.803679,6.86435 86.701932,6.784136 86.59375,6.71875 c -0.0074,-0.0045 -0.02384,0.0044 -0.03125,0 -0.232039,-0.138728 -0.462548,-0.274778 -0.71875,-0.375 0.301527,0.0968 0.596455,0.204138 0.875,0.34375 0.55709,0.279224 1.060053,0.665694 1.5,1.09375 0.219973,0.214028 0.409366,0.441865 0.59375,0.6875 0.184384,0.245635 0.355408,0.507743 0.5,0.78125 0.14012,0.265048 0.276135,0.524729 0.375,0.8125 0.01041,0.03078 0.02133,0.06274 0.03125,0.09375 0.09046,0.278085 0.1388,0.579404 0.1875,0.875 C 89.95865,11.3493 90,11.665279 90,12 l 0,2 0,68 0,2 c 0,3.324 -2.676,6 -6,6 l -72,0 z"
       inkscape:connector-curvature="0"
       id="path3615"
       style="opacity:0.15;fill:url(#radialGradient2874);fill-opacity:1;fill-rule:nonzero;stroke:none" />
  </g>
  <g
     id="layer4">
    <rect
       width="66"
       height="66"
       rx="12"
       ry="12"
       x="15"
       y="15"
       clip-path="url(#clipPath3613)"
       id="rect3171"
       style="opacity:0.1;fill:url(#linearGradient2862);fill-opacity:1;fill-rule:nonzero;stroke:#ffffff;stroke-width:0.5;stroke-linecap:round;stroke-linejoin:miter;stroke-miterlimit:4;stroke-opacity:1;stroke-dasharray:none;stroke-dashoffset:0;filter:url(#filter3794)" />
  </g>
  <g
     id="g3147"
     transform="translate(0.746713,-0.584988)">
    <path
       d="m 47.253286,11.642118 c -20.023981,0 -36.582997,16.370306 -36.582997,36.94287 0,20.572563 16.559016,36.94287 36.582997,36.94287 20.023982,0 36.582999,-16.370307 36.582999,-36.94287 0,-20.572564 -16.559017,-36.94287 -36.582999,-36.94287 z"
       id="path3805"
       style="opacity:0.05;fill:#000000;fill-opacity:1;fill-rule:nonzero;stroke:none"
       inkscape:connector-curvature="0" />
    <path
       d="m 47.253286,12.746952 c -19.524485,0 -35.589232,15.944212 -35.589232,35.838036 0,19.893824 16.064747,35.838036 35.589232,35.838036 19.524487,0 35.589233,-15.944212 35.589233,-35.838036 0,-19.893824 -16.064746,-35.838036 -35.589233,-35.838036 z"
       id="path3801"
       style="opacity:0.1;fill:#000000;fill-opacity:1;fill-rule:nonzero;stroke:none"
       inkscape:connector-curvature="0" />
    <path
       d="m 47.253286,13.71368 c -19.095867,0 -34.719687,15.562279 -34.719687,34.871308 0,19.309029 15.62382,34.871307 34.719687,34.871307 19.095868,0 34.719688,-15.562278 34.719688,-34.871307 0,-19.309029 -15.62382,-34.871308 -34.719688,-34.871308 z"
       id="path3797"
       style="opacity:0.2;fill:#000000;fill-opacity:1;fill-rule:nonzero;stroke:none"
       inkscape:connector-curvature="0" />
    <path
       d="m 80.784006,48.59485 a 33.539591,33.53959 0 0 1 -67.079181,0 33.539591,33.53959 0 1 1 67.079181,0 z"
       id="path3623"
       style="opacity:0.6;fill:#000000;fill-opacity:1;fill-rule:nonzero;stroke:none"
       inkscape:connector-curvature="0" />
    <path
       d="m 79.586097,47.397003 a 32.341687,32.341687 0 0 1 -64.683373,0 32.341687,32.341687 0 1 1 64.683373,0 z"
       id="path3294"
       style="fill:url(#linearGradient3154);fill-opacity:1;fill-rule:evenodd;stroke:url(#linearGradient3156);stroke-width:2.39568448;stroke-linecap:butt;stroke-linejoin:round;stroke-miterlimit:4;stroke-opacity:1;stroke-dasharray:none;stroke-dashoffset:0;display:inline"
       inkscape:connector-curvature="0" />
  </g>
  <g
     transform="matrix(0.81225554,0,0,0.81225554,8.6049544,6.9784877)"
     id="layer4-0"
     style="display:inline">
    <path
       d="m 80,48 c 0,-2.216 -1.784,-4 -4,-4 l -10,0 c -2.216,0 -4,1.784 -4,4 0,2.216 1.784,4 4,4 l 10,0 c 2.216,0 4,-1.784 4,-4 z M 71.8125,28.1875 c 0,-1.022476 -0.404026,-2.029026 -1.1875,-2.8125 -1.566949,-1.566949 -4.089301,-1.566949 -5.65625,0 l -7.0625,7.0625 c -1.566949,1.566949 -1.566949,4.089301 0,5.65625 1.566949,1.566949 4.089301,1.566949 5.65625,0 l 7.0625,-7.0625 c 0.783474,-0.783474 1.1875,-1.821274 1.1875,-2.84375 z m 0,39.625 c 0,-1.022476 -0.404026,-2.060276 -1.1875,-2.84375 l -7.0625,-7.0625 c -1.566949,-1.566949 -4.089301,-1.566949 -5.65625,0 -1.566949,1.566949 -1.566949,4.089301 0,5.65625 l 7.0625,7.0625 c 1.566949,1.566949 4.089301,1.566949 5.65625,0 0.783474,-0.783474 1.1875,-1.790024 1.1875,-2.8125 z M 52,20 c 0,-2.216 -1.784,-4 -4,-4 -2.216,0 -4,1.784 -4,4 l 0,10 c 0,2.216 1.784,4 4,4 2.216,0 4,-1.784 4,-4 l 0,-10 z m 0,46 c 0,-2.216 -1.784,-4 -4,-4 -2.216,0 -4,1.784 -4,4 l 0,10 c 0,2.216 1.784,4 4,4 2.216,0 4,-1.784 4,-4 L 52,66 z M 39.28125,35.28125 c 0,-1.022476 -0.404026,-2.060276 -1.1875,-2.84375 l -7.0625,-7.0625 c -1.566949,-1.566949 -4.089301,-1.566949 -5.65625,0 -1.566949,1.566949 -1.566949,4.089301 0,5.65625 l 7.0625,7.0625 c 1.566949,1.566949 4.089301,1.566949 5.65625,0 0.783474,-0.783474 1.1875,-1.790024 1.1875,-2.8125 z m 0,25.4375 c 0,-1.022476 -0.404026,-2.029026 -1.1875,-2.8125 -1.566949,-1.566949 -4.089301,-1.566949 -5.65625,0 l -7.0625,7.0625 c -1.566949,1.566949 -1.566949,4.089301 0,5.65625 1.566949,1.566949 4.089301,1.566949 5.65625,0 l 7.0625,-7.0625 c 0.783474,-0.783474 1.1875,-1.821274 1.1875,-2.84375 z M 34,48 c 0,-2.216 -1.784,-4 -4,-4 l -10,0 c -2.216,0 -4,1.784 -4,4 0,2.216 1.784,4 4,4 l 10,0 c 2.216,0 4,-1.784 4,-4 z"
       inkscape:connector-curvature="0"
       id="rect3186"
       style="color:#000000;fill:url(#linearGradient3979);fill-opacity:1;fill-rule:nonzero;stroke:none;stroke-width:2;marker:none;visibility:visible;display:inline;overflow:visible;enable-background:accumulate" />
    <path
       d="m 48,16 c -2.216,0 -4,1.784 -4,4 l 0,10 c 0,2.216 1.784,4 4,4 2.216,0 4,-1.784 4,-4 l 0,-10 c 0,-2.216 -1.784,-4 -4,-4 z m 0,0.96875 c 1.702545,0 3.03125,1.328705 3.03125,3.03125 l 0,10 c 0,1.702545 -1.328705,3.03125 -3.03125,3.03125 -1.702545,0 -3.03125,-1.328705 -3.03125,-3.03125 l 0,-10 c 0,-1.702545 1.328705,-3.03125 3.03125,-3.03125 z M 28.1875,24.1875 c -1.022325,0 -2.029025,0.404025 -2.8125,1.1875 -1.566949,1.566949 -1.566949,4.089301 0,5.65625 l 7.0625,7.0625 c 1.566949,1.566949 4.089301,1.566949 5.65625,0 0.783474,-0.783474 1.1875,-1.790024 1.1875,-2.8125 0,-1.022476 -0.404026,-2.060276 -1.1875,-2.84375 L 31.03125,25.375 C 30.247775,24.591525 29.209825,24.1875 28.1875,24.1875 z m 39.625,0 c -1.022325,0 -2.060276,0.404025 -2.84375,1.1875 l -7.0625,7.0625 c -1.566949,1.566949 -1.566949,4.089301 0,5.65625 1.566949,1.566949 4.089301,1.566949 5.65625,0 l 7.0625,-7.0625 c 0.783474,-0.783474 1.1875,-1.821274 1.1875,-2.84375 0,-1.022476 -0.404026,-2.029026 -1.1875,-2.8125 -0.783474,-0.783475 -1.790175,-1.1875 -2.8125,-1.1875 z m -39.625,0.96875 c 0.770269,0 1.555226,0.305226 2.15625,0.90625 l 7.0625,7.0625 c 0.601067,0.601067 0.90625,1.385793 0.90625,2.15625 0,0.770457 -0.296189,1.514939 -0.90625,2.125 -1.203968,1.203968 -3.077282,1.203968 -4.28125,0 l -7.0625,-7.0625 c -1.203968,-1.203968 -1.203968,-3.077282 0,-4.28125 0.610018,-0.610018 1.354731,-0.90625 2.125,-0.90625 z m 39.625,0 c 0.770269,0 1.514983,0.296232 2.125,0.90625 0.610061,0.610061 0.90625,1.354543 0.90625,2.125 0,0.770457 -0.305183,1.555183 -0.90625,2.15625 l -7.0625,7.0625 c -1.203968,1.203968 -3.077282,1.203968 -4.28125,0 -1.203968,-1.203968 -1.203968,-3.077282 0,-4.28125 l 7.0625,-7.0625 c 0.601023,-0.601024 1.385981,-0.90625 2.15625,-0.90625 z M 20,44 c -2.216,0 -4,1.784 -4,4 0,2.216 1.784,4 4,4 l 10,0 c 2.216,0 4,-1.784 4,-4 0,-2.216 -1.784,-4 -4,-4 l -10,0 z m 46,0 c -2.216,0 -4,1.784 -4,4 0,2.216 1.784,4 4,4 l 10,0 c 2.216,0 4,-1.784 4,-4 0,-2.216 -1.784,-4 -4,-4 l -10,0 z m -46,0.96875 10,0 c 1.702545,0 3.03125,1.328705 3.03125,3.03125 0,1.702545 -1.328705,3.03125 -3.03125,3.03125 l -10,0 c -1.702545,0 -3.03125,-1.328705 -3.03125,-3.03125 0,-1.702545 1.328705,-3.03125 3.03125,-3.03125 z m 46,0 10,0 c 1.702545,0 3.03125,1.328705 3.03125,3.03125 0,1.702545 -1.328705,3.03125 -3.03125,3.03125 l -10,0 c -1.702545,0 -3.03125,-1.328705 -3.03125,-3.03125 0,-1.702545 1.328705,-3.03125 3.03125,-3.03125 z m -30.75,11.75 c -1.022325,0 -2.029026,0.404026 -2.8125,1.1875 l -7.0625,7.0625 c -1.566949,1.566949 -1.566949,4.089301 0,5.65625 1.566949,1.566949 4.089301,1.566949 5.65625,0 l 7.0625,-7.0625 c 0.783474,-0.783474 1.1875,-1.821274 1.1875,-2.84375 0,-1.022476 -0.404026,-2.029026 -1.1875,-2.8125 -0.783474,-0.783474 -1.821425,-1.1875 -2.84375,-1.1875 z m 25.5,0 c -1.022325,0 -2.060276,0.404026 -2.84375,1.1875 -1.566949,1.566949 -1.566949,4.089301 0,5.65625 l 7.0625,7.0625 c 1.566949,1.566949 4.089301,1.566949 5.65625,0 0.783474,-0.783474 1.1875,-1.790024 1.1875,-2.8125 0,-1.022476 -0.404026,-2.060276 -1.1875,-2.84375 l -7.0625,-7.0625 c -0.783474,-0.783474 -1.790175,-1.1875 -2.8125,-1.1875 z m -25.5,0.96875 c 0.770268,0 1.555227,0.305227 2.15625,0.90625 0.610061,0.610061 0.90625,1.354543 0.90625,2.125 0,0.770457 -0.305183,1.555183 -0.90625,2.15625 l -7.0625,7.0625 c -1.203968,1.203968 -3.077282,1.203968 -4.28125,0 -1.203968,-1.203968 -1.203968,-3.077282 0,-4.28125 l 7.0625,-7.0625 c 0.610017,-0.610017 1.354732,-0.90625 2.125,-0.90625 z m 25.5,0 c 0.770268,0 1.514983,0.296233 2.125,0.90625 l 7.0625,7.0625 c 0.601067,0.601067 0.90625,1.385793 0.90625,2.15625 0,0.770457 -0.296189,1.514939 -0.90625,2.125 -1.203968,1.203968 -3.077282,1.203968 -4.28125,0 l -7.0625,-7.0625 c -1.203968,-1.203968 -1.203968,-3.077282 0,-4.28125 C 59.194773,57.992727 59.979732,57.6875 60.75,57.6875 z M 48,62 c -2.216,0 -4,1.784 -4,4 l 0,10 c 0,2.216 1.784,4 4,4 2.216,0 4,-1.784 4,-4 l 0,-10 c 0,-2.216 -1.784,-4 -4,-4 z m 0,0.96875 c 1.702545,0 3.03125,1.328705 3.03125,3.03125 l 0,10 c 0,1.702545 -1.328705,3.03125 -3.03125,3.03125 -1.702545,0 -3.03125,-1.328705 -3.03125,-3.03125 l 0,-10 c 0,-1.702545 1.328705,-3.03125 3.03125,-3.03125 z"
       inkscape:connector-curvature="0"
       id="path3999"
       style="opacity:0.2;color:#000000;fill:#000000;fill-opacity:1;fill-rule:nonzero;stroke:none;stroke-width:2;marker:none;visibility:visible;display:inline;overflow:visible;enable-background:accumulate" />
    <path
       d="m 48,16 c -2.216,0 -4,1.784 -4,4 l 0,10 c 0,2.216 1.784,4 4,4 2.216,0 4,-1.784 4,-4 l 0,-10 c 0,-2.216 -1.784,-4 -4,-4 z m 0,2 c 1.143449,0 2,0.856551 2,2 l 0,10 c 0,1.143449 -0.856551,2 -2,2 -1.143449,0 -2,-0.856551 -2,-2 l 0,-10 c 0,-1.143449 0.856551,-2 2,-2 z m -19.8125,6.1875 c -1.022325,0 -2.029025,0.404025 -2.8125,1.1875 -1.566949,1.566949 -1.566949,4.089301 0,5.65625 l 7.0625,7.0625 c 1.566949,1.566949 4.089301,1.566949 5.65625,0 0.783474,-0.783474 1.1875,-1.790024 1.1875,-2.8125 0,-1.022476 -0.404026,-2.060276 -1.1875,-2.84375 L 31.03125,25.375 C 30.247775,24.591525 29.209825,24.1875 28.1875,24.1875 z m 39.625,0 c -1.022325,0 -2.060276,0.404025 -2.84375,1.1875 l -7.0625,7.0625 c -1.566949,1.566949 -1.566949,4.089301 0,5.65625 1.566949,1.566949 4.089301,1.566949 5.65625,0 l 7.0625,-7.0625 c 0.783474,-0.783474 1.1875,-1.821274 1.1875,-2.84375 0,-1.022476 -0.404026,-2.029026 -1.1875,-2.8125 -0.783474,-0.783475 -1.790175,-1.1875 -2.8125,-1.1875 z m -39.625,2 c 0.495808,0 1.035144,0.191394 1.4375,0.59375 l 7.0625,7.0625 c 0.402445,0.402445 0.59375,0.941464 0.59375,1.4375 0,0.496036 -0.172517,0.985017 -0.59375,1.40625 -0.808723,0.808723 -2.035027,0.808723 -2.84375,0 l -7.0625,-7.0625 c -0.808723,-0.808723 -0.808723,-2.035027 0,-2.84375 0.421144,-0.421144 0.910442,-0.59375 1.40625,-0.59375 z m 39.625,0 c 0.495808,0 0.985109,0.172608 1.40625,0.59375 0.421233,0.421233 0.59375,0.910214 0.59375,1.40625 0,0.496036 -0.191305,1.035055 -0.59375,1.4375 l -7.0625,7.0625 c -0.808723,0.808723 -2.035027,0.808723 -2.84375,0 -0.808723,-0.808723 -0.808723,-2.035027 0,-2.84375 l 7.0625,-7.0625 c 0.402354,-0.402354 0.941692,-0.59375 1.4375,-0.59375 z M 20,44 c -2.216,0 -4,1.784 -4,4 0,2.216 1.784,4 4,4 l 10,0 c 2.216,0 4,-1.784 4,-4 0,-2.216 -1.784,-4 -4,-4 l -10,0 z m 46,0 c -2.216,0 -4,1.784 -4,4 0,2.216 1.784,4 4,4 l 10,0 c 2.216,0 4,-1.784 4,-4 0,-2.216 -1.784,-4 -4,-4 l -10,0 z m -46,2 10,0 c 1.143449,0 2,0.856551 2,2 0,1.143449 -0.856551,2 -2,2 l -10,0 c -1.143449,0 -2,-0.856551 -2,-2 0,-1.143449 0.856551,-2 2,-2 z m 46,0 10,0 c 1.143449,0 2,0.856551 2,2 0,1.143449 -0.856551,2 -2,2 l -10,0 c -1.143449,0 -2,-0.856551 -2,-2 0,-1.143449 0.856551,-2 2,-2 z M 35.25,56.71875 c -1.022325,0 -2.029026,0.404026 -2.8125,1.1875 l -7.0625,7.0625 c -1.566949,1.566949 -1.566949,4.089301 0,5.65625 1.566949,1.566949 4.089301,1.566949 5.65625,0 l 7.0625,-7.0625 c 0.783474,-0.783474 1.1875,-1.821274 1.1875,-2.84375 0,-1.022476 -0.404026,-2.029026 -1.1875,-2.8125 -0.783474,-0.783474 -1.821425,-1.1875 -2.84375,-1.1875 z m 25.5,0 c -1.022325,0 -2.060276,0.404026 -2.84375,1.1875 -1.566949,1.566949 -1.566949,4.089301 0,5.65625 l 7.0625,7.0625 c 1.566949,1.566949 4.089301,1.566949 5.65625,0 0.783474,-0.783474 1.1875,-1.790024 1.1875,-2.8125 0,-1.022476 -0.404026,-2.060276 -1.1875,-2.84375 l -7.0625,-7.0625 c -0.783474,-0.783474 -1.790175,-1.1875 -2.8125,-1.1875 z m -25.5,2 c 0.495807,0 1.035146,0.191396 1.4375,0.59375 0.421233,0.421233 0.59375,0.910214 0.59375,1.40625 0,0.496036 -0.191305,1.035055 -0.59375,1.4375 l -7.0625,7.0625 c -0.808723,0.808723 -2.035027,0.808723 -2.84375,0 -0.808723,-0.808723 -0.808723,-2.035027 0,-2.84375 l 7.0625,-7.0625 c 0.421142,-0.421142 0.910443,-0.59375 1.40625,-0.59375 z m 25.5,0 c 0.495807,0 0.985108,0.172608 1.40625,0.59375 l 7.0625,7.0625 c 0.402445,0.402445 0.59375,0.941464 0.59375,1.4375 0,0.496036 -0.172517,0.985017 -0.59375,1.40625 -0.808723,0.808723 -2.035027,0.808723 -2.84375,0 l -7.0625,-7.0625 c -0.808723,-0.808723 -0.808723,-2.035027 0,-2.84375 0.402354,-0.402354 0.941693,-0.59375 1.4375,-0.59375 z M 48,62 c -2.216,0 -4,1.784 -4,4 l 0,10 c 0,2.216 1.784,4 4,4 2.216,0 4,-1.784 4,-4 l 0,-10 c 0,-2.216 -1.784,-4 -4,-4 z m 0,2 c 1.143449,0 2,0.856551 2,2 l 0,10 c 0,1.143449 -0.856551,2 -2,2 -1.143449,0 -2,-0.856551 -2,-2 l 0,-10 c 0,-1.143449 0.856551,-2 2,-2 z"
       inkscape:connector-curvature="0"
       id="path4008"
       style="opacity:0.05;color:#000000;fill:#000000;fill-opacity:1;fill-rule:nonzero;stroke:none;stroke-width:2;marker:none;visibility:visible;display:inline;overflow:visible;enable-background:accumulate" />
    <path
       d="m 48,16 c -2.216,0 -4,1.784 -4,4 l 0,1 c 0,-2.216 1.784,-4 4,-4 2.216,0 4,1.784 4,4 l 0,-1 c 0,-2.216 -1.784,-4 -4,-4 z m -19.8125,8.1875 c -1.022325,0 -2.029025,0.404025 -2.8125,1.1875 -0.908905,0.908905 -1.270511,2.133608 -1.125,3.3125 0.108816,-0.846409 0.472105,-1.659605 1.125,-2.3125 1.566949,-1.566949 4.089301,-1.566949 5.65625,0 l 7.0625,7.0625 c 0.65312,0.65312 1.044743,1.493365 1.15625,2.34375 0.02226,-0.168283 0.03125,-0.329881 0.03125,-0.5 0,-1.022476 -0.404026,-2.060276 -1.1875,-2.84375 L 31.03125,25.375 C 30.247775,24.591525 29.209825,24.1875 28.1875,24.1875 z m 39.625,0 c -1.022325,0 -2.060276,0.404025 -2.84375,1.1875 l -7.0625,7.0625 c -0.908905,0.908905 -1.270511,2.133608 -1.125,3.3125 0.108816,-0.846409 0.472105,-1.659605 1.125,-2.3125 l 7.0625,-7.0625 c 1.566949,-1.566949 4.089301,-1.566949 5.65625,0 0.65312,0.65312 1.044743,1.469341 1.15625,2.3125 0.02226,-0.169725 0.03125,-0.329881 0.03125,-0.5 0,-1.022476 -0.404026,-2.029026 -1.1875,-2.8125 -0.783474,-0.783475 -1.790175,-1.1875 -2.8125,-1.1875 z M 20,44 c -2.216,0 -4,1.784 -4,4 0,0.170648 0.04196,0.335093 0.0625,0.5 C 16.308703,46.523459 17.954648,45 20,45 l 10,0 c 2.045352,0 3.691297,1.523459 3.9375,3.5 C 33.958041,48.335093 34,48.170648 34,48 34,45.784 32.216,44 30,44 l -10,0 z m 46,0 c -2.216,0 -4,1.784 -4,4 0,0.170648 0.04196,0.335093 0.0625,0.5 C 62.308703,46.523459 63.954648,45 66,45 l 10,0 c 2.045352,0 3.691297,1.523459 3.9375,3.5 C 79.958041,48.335093 80,48.170648 80,48 80,45.784 78.216,44 76,44 L 66,44 z M 35.25,56.71875 c -1.022325,0 -2.029026,0.404026 -2.8125,1.1875 l -7.0625,7.0625 c -0.914054,0.914054 -1.277342,2.158778 -1.125,3.34375 0.105349,-0.853515 0.466956,-1.685706 1.125,-2.34375 l 7.0625,-7.0625 c 1.566949,-1.566949 4.089301,-1.566949 5.65625,0 0.65312,0.65312 1.044743,1.469341 1.15625,2.3125 0.02226,-0.169725 0.03125,-0.329881 0.03125,-0.5 0,-1.022476 -0.404026,-2.029026 -1.1875,-2.8125 -0.783474,-0.783474 -1.821425,-1.1875 -2.84375,-1.1875 z m 25.5,0 c -1.022325,0 -2.060276,0.404026 -2.84375,1.1875 -0.914054,0.914054 -1.277342,2.158778 -1.125,3.34375 0.105349,-0.853515 0.466956,-1.685706 1.125,-2.34375 1.566949,-1.566949 4.089301,-1.566949 5.65625,0 l 7.0625,7.0625 c 0.65312,0.65312 1.044743,1.493365 1.15625,2.34375 0.02226,-0.168283 0.03125,-0.329881 0.03125,-0.5 0,-1.022476 -0.404026,-2.060276 -1.1875,-2.84375 l -7.0625,-7.0625 C 62.779026,57.122776 61.772325,56.71875 60.75,56.71875 z M 48,62 c -2.216,0 -4,1.784 -4,4 l 0,1 c 0,-2.216 1.784,-4 4,-4 2.216,0 4,1.784 4,4 l 0,-1 c 0,-2.216 -1.784,-4 -4,-4 z"
       inkscape:connector-curvature="0"
       id="path3981"
       style="opacity:0.6;color:#000000;fill:#000000;fill-opacity:1;fill-rule:nonzero;stroke:none;stroke-width:2;marker:none;visibility:visible;display:inline;overflow:visible;enable-background:accumulate" />
    <path
       d="m 24.25,28.6875 c -0.152342,1.184972 0.210946,2.429696 1.125,3.34375 l 7.0625,7.0625 c 1.566949,1.566949 4.089301,1.566949 5.65625,0 0.783474,-0.783474 1.1875,-1.790024 1.1875,-2.8125 0,-0.170119 -0.009,-0.330275 -0.03125,-0.5 -0.111507,0.843159 -0.50313,1.65938 -1.15625,2.3125 -1.566949,1.566949 -4.089301,1.566949 -5.65625,0 L 25.375,31.03125 C 24.716956,30.373206 24.355349,29.541015 24.25,28.6875 z m 47.53125,0 c -0.111507,0.850385 -0.50313,1.69063 -1.15625,2.34375 l -7.0625,7.0625 c -1.566949,1.566949 -4.089301,1.566949 -5.65625,0 -0.658044,-0.658044 -1.019651,-1.490235 -1.125,-2.34375 -0.152342,1.184972 0.210946,2.429696 1.125,3.34375 1.566949,1.566949 4.089301,1.566949 5.65625,0 l 7.0625,-7.0625 c 0.783474,-0.783474 1.1875,-1.821274 1.1875,-2.84375 0,-0.170119 -0.009,-0.331717 -0.03125,-0.5 z M 44,30 l 0,1 c 0,2.216 1.784,4 4,4 2.216,0 4,-1.784 4,-4 l 0,-1 c 0,2.216 -1.784,4 -4,4 -2.216,0 -4,-1.784 -4,-4 z M 16.0625,48.5 C 16.041959,48.664907 16,48.829352 16,49 c 0,2.216 1.784,4 4,4 l 10,0 c 2.216,0 4,-1.784 4,-4 0,-0.170648 -0.04196,-0.335093 -0.0625,-0.5 C 33.691297,50.476541 32.045352,52 30,52 l -10,0 c -2.045352,0 -3.691297,-1.523459 -3.9375,-3.5 z m 46,0 C 62.041959,48.664907 62,48.829352 62,49 c 0,2.216 1.784,4 4,4 l 10,0 c 2.216,0 4,-1.784 4,-4 0,-0.170648 -0.04196,-0.335093 -0.0625,-0.5 C 79.691297,50.476541 78.045352,52 76,52 l -10,0 c -2.045352,0 -3.691297,-1.523459 -3.9375,-3.5 z M 39.25,61.21875 c -0.111507,0.850385 -0.50313,1.69063 -1.15625,2.34375 l -7.0625,7.0625 c -1.566949,1.566949 -4.089301,1.566949 -5.65625,0 -0.652895,-0.652895 -1.016184,-1.466091 -1.125,-2.3125 -0.145511,1.178892 0.216095,2.403595 1.125,3.3125 1.566949,1.566949 4.089301,1.566949 5.65625,0 l 7.0625,-7.0625 c 0.783474,-0.783474 1.1875,-1.821274 1.1875,-2.84375 0,-0.170119 -0.009,-0.331717 -0.03125,-0.5 z M 56.78125,61.25 c -0.145511,1.178892 0.216095,2.403595 1.125,3.3125 l 7.0625,7.0625 c 1.566949,1.566949 4.089301,1.566949 5.65625,0 0.783474,-0.783474 1.1875,-1.790024 1.1875,-2.8125 0,-0.170119 -0.009,-0.330275 -0.03125,-0.5 -0.111507,0.843159 -0.50313,1.65938 -1.15625,2.3125 -1.566949,1.566949 -4.089301,1.566949 -5.65625,0 l -7.0625,-7.0625 C 57.253355,62.909605 56.890066,62.096409 56.78125,61.25 z M 44,76 l 0,1 c 0,2.216 1.784,4 4,4 2.216,0 4,-1.784 4,-4 l 0,-1 c 0,2.216 -1.784,4 -4,4 -2.216,0 -4,-1.784 -4,-4 z"
       inkscape:connector-curvature="0"
       id="path3990"
       style="opacity:0.6;color:#000000;fill:#ffffff;fill-opacity:1;fill-rule:nonzero;stroke:none;stroke-width:2;marker:none;visibility:visible;display:inline;overflow:visible;enable-background:accumulate" />
  </g>
  <path
     d="m 73.778694,45.921608 c 0,-1.799958 -1.449064,-3.249022 -3.249022,-3.249022 l -8.122554,0 c -1.799959,0 -3.249023,1.449064 -3.249023,3.249022 0,1.799958 1.449064,3.249022 3.249023,3.249022 l 8.122554,0 c 1.799958,0 3.249022,-1.449064 3.249022,-3.249022 z M 67.128352,29.828795 c 0,-0.830512 -0.328172,-1.648087 -0.964552,-2.284469 -1.272763,-1.272763 -3.321558,-1.272763 -4.594321,0 l -5.736555,5.736555 c -1.272763,1.272763 -1.272763,3.321557 0,4.59432 1.272763,1.272763 3.321558,1.272763 4.594321,0 L 66.1638,32.138647 c 0.63638,-0.636381 0.964552,-1.47934 0.964552,-2.309852 z M 51.03554,23.178453 c 0,-1.799958 -1.449064,-3.249022 -3.249022,-3.249022 -1.799958,0 -3.249022,1.449064 -3.249022,3.249022 l 0,8.122555 c 0,1.799959 1.449064,3.249022 3.249022,3.249022 1.799958,0 3.249022,-1.449063 3.249022,-3.249022 z m -10.330875,12.41228 c 0,-0.830512 -0.328172,-1.673471 -0.964554,-2.309852 l -5.736559,-5.736555 c -1.27276,-1.272763 -3.32155,-1.272763 -4.59432,0 -1.27276,1.272763 -1.27276,3.321558 0,4.594321 l 5.736559,5.736554 c 1.272763,1.272763 3.321557,1.272763 4.59432,0 0.636382,-0.636381 0.964554,-1.453956 0.964554,-2.284468 z"
     inkscape:connector-curvature="0"
     id="path3211"
     style="color:#000000;fill:#fff6d5;fill-opacity:1;fill-rule:nonzero;stroke:none;stroke-width:2;marker:none;visibility:visible;display:inline;overflow:visible;enable-background:accumulate"
     sodipodi:nodetypes="ssssssssssssssssssssssssssssss" />
  <path
     sodipodi:nodetypes="ssssssssssssssssssssssssssssss"
     style="color:#000000;fill:#ffebd5;fill-opacity:1;fill-rule:nonzero;stroke:none;stroke-width:2;marker:none;visibility:visible;display:inline;overflow:visible;enable-background:accumulate;filter:url(#filter4023)"
     id="path3241"
     inkscape:connector-curvature="0"
     d="m 73.778694,45.921608 c 0,-1.799958 -1.449064,-3.249022 -3.249022,-3.249022 l -8.122554,0 c -1.799959,0 -3.249023,1.449064 -3.249023,3.249022 0,1.799958 1.449064,3.249022 3.249023,3.249022 l 8.122554,0 c 1.799958,0 3.249022,-1.449064 3.249022,-3.249022 z M 67.128352,29.828795 c 0,-0.830512 -0.328172,-1.648087 -0.964552,-2.284469 -1.272763,-1.272763 -3.321558,-1.272763 -4.594321,0 l -5.736555,5.736555 c -1.272763,1.272763 -1.272763,3.321557 0,4.59432 1.272763,1.272763 3.321558,1.272763 4.594321,0 L 66.1638,32.138647 c 0.63638,-0.636381 0.964552,-1.47934 0.964552,-2.309852 z M 51.03554,23.178453 c 0,-1.799958 -1.449064,-3.249022 -3.249022,-3.249022 -1.799958,0 -3.249022,1.449064 -3.249022,3.249022 l 0,8.122555 c 0,1.799959 1.449064,3.249022 3.249022,3.249022 1.799958,0 3.249022,-1.449063 3.249022,-3.249022 z m -10.330875,12.41228 c 0,-0.830512 -0.328172,-1.673471 -0.964554,-2.309852 l -5.736559,-5.736555 c -1.27276,-1.272763 -3.32155,-1.272763 -4.59432,0 -1.27276,1.272763 -1.27276,3.321558 0,4.594321 l 5.736559,5.736554 c 1.272763,1.272763 3.321557,1.272763 4.59432,0 0.636382,-0.636381 0.964554,-1.453956 0.964554,-2.284468 z" />
  <path
     d="m 73.778694,45.921608 c 0,-1.799958 -1.449064,-3.249022 -3.249022,-3.249022 l -8.122554,0 c -1.799959,0 -3.249023,1.449064 -3.249023,3.249022 0,1.799958 1.449064,3.249022 3.249023,3.249022 l 8.122554,0 c 1.799958,0 3.249022,-1.449064 3.249022,-3.249022 z M 67.128352,29.828795 c 0,-0.830512 -0.328172,-1.648087 -0.964552,-2.284469 -1.272763,-1.272763 -3.321558,-1.272763 -4.594321,0 l -5.736555,5.736555 c -1.272763,1.272763 -1.272763,3.321557 0,4.59432 1.272763,1.272763 3.321558,1.272763 4.594321,0 L 66.1638,32.138647 c 0.63638,-0.636381 0.964552,-1.47934 0.964552,-2.309852 z M 51.03554,23.178453 c 0,-1.799958 -1.449064,-3.249022 -3.249022,-3.249022 -1.799958,0 -3.249022,1.449064 -3.249022,3.249022 l 0,8.122555 c 0,1.799959 1.449064,3.249022 3.249022,3.249022 1.799958,0 3.249022,-1.449063 3.249022,-3.249022 z m -10.330875,12.41228 c 0,-0.830512 -0.328172,-1.673471 -0.964554,-2.309852 l -5.736559,-5.736555 c -1.27276,-1.272763 -3.32155,-1.272763 -4.59432,0 -1.27276,1.272763 -1.27276,3.321558 0,4.594321 l 5.736559,5.736554 c 1.272763,1.272763 3.321557,1.272763 4.59432,0 0.636382,-0.636381 0.964554,-1.453956 0.964554,-2.284468 z"
     inkscape:connector-curvature="0"
     id="path4027"
     style="color:#000000;fill:#fff6d5;fill-opacity:1;fill-rule:nonzero;stroke:none;stroke-width:2;marker:none;visibility:visible;display:inline;overflow:visible;enable-background:accumulate;filter:url(#filter4023)"
     sodipodi:nodetypes="ssssssssssssssssssssssssssssss" />
  <path
     sodipodi:type="arc"
     style="opacity:0.15833333;fill:url(#radialGradient4037);fill-opacity:1;stroke:none"
     id="path4029"
     sodipodi:cx="-19.559292"
     sodipodi:cy="7.1202731"
     sodipodi:rx="20.422203"
     sodipodi:ry="20.422203"
     d="m 0.86291122,7.1202731 a 20.422203,20.422203 0 1 1 -40.84440622,0 20.422203,20.422203 0 1 1 40.84440622,0 z"
     transform="translate(73.754127,29.394277)" />
  <path
     sodipodi:nodetypes="ssssssssssssssssssssssssssssss"
     style="opacity:0.19583333000000000;color:#000000;fill:url(#linearGradient4089);fill-opacity:1;fill-rule:nonzero;stroke:none;stroke-width:2;marker:none;visibility:visible;display:inline;overflow:visible;filter:url(#filter4023);enable-background:accumulate"
     id="path4039"
     inkscape:connector-curvature="0"
     d="m 73.778694,45.921608 c 0,-1.799958 -1.449064,-3.249022 -3.249022,-3.249022 l -8.122554,0 c -1.799959,0 -3.249023,1.449064 -3.249023,3.249022 0,1.799958 1.449064,3.249022 3.249023,3.249022 l 8.122554,0 c 1.799958,0 3.249022,-1.449064 3.249022,-3.249022 z M 67.128352,29.828795 c 0,-0.830512 -0.328172,-1.648087 -0.964552,-2.284469 -1.272763,-1.272763 -3.321558,-1.272763 -4.594321,0 l -5.736555,5.736555 c -1.272763,1.272763 -1.272763,3.321557 0,4.59432 1.272763,1.272763 3.321558,1.272763 4.594321,0 L 66.1638,32.138647 c 0.63638,-0.636381 0.964552,-1.47934 0.964552,-2.309852 z M 51.03554,23.178453 c 0,-1.799958 -1.449064,-3.249022 -3.249022,-3.249022 -1.799958,0 -3.249022,1.449064 -3.249022,3.249022 l 0,8.122555 c 0,1.799959 1.449064,3.249022 3.249022,3.249022 1.799958,0 3.249022,-1.449063 3.249022,-3.249022 z m -10.330875,12.41228 c 0,-0.830512 -0.328172,-1.673471 -0.964554,-2.309852 l -5.736559,-5.736555 c -1.27276,-1.272763 -3.32155,-1.272763 -4.59432,0 -1.27276,1.272763 -1.27276,3.321558 0,4.594321 l 5.736559,5.736554 c 1.272763,1.272763 3.321557,1.272763 4.59432,0 0.636382,-0.636381 0.964554,-1.453956 0.964554,-2.284468 z" />
</svg>
