<?xml version="1.0" encoding="UTF-8" standalone="no"?>
<!-- Created with Inkscape (http://www.inkscape.org/) -->

<svg
   xmlns:dc="http://purl.org/dc/elements/1.1/"
   xmlns:cc="http://creativecommons.org/ns#"
   xmlns:rdf="http://www.w3.org/1999/02/22-rdf-syntax-ns#"
   xmlns:svg="http://www.w3.org/2000/svg"
   xmlns="http://www.w3.org/2000/svg"
   xmlns:xlink="http://www.w3.org/1999/xlink"
   xmlns:sodipodi="http://sodipodi.sourceforge.net/DTD/sodipodi-0.dtd"
   xmlns:inkscape="http://www.inkscape.org/namespaces/inkscape"
   version="1.0"
   width="96"
   height="96"
   id="svg2408"
   style="display:inline"
   inkscape:version="0.48.3.1 r9886"
   sodipodi:docname="Fixing legacy fonts.svg">
  <sodipodi:namedview
     pagecolor="#ffffff"
     bordercolor="#666666"
     borderopacity="1"
     objecttolerance="10"
     gridtolerance="10"
     guidetolerance="10"
     inkscape:pageopacity="0"
     inkscape:pageshadow="2"
     inkscape:window-width="1024"
     inkscape:window-height="687"
     id="namedview84"
     showgrid="false"
     inkscape:zoom="2.4583334"
     inkscape:cx="-17.694916"
     inkscape:cy="31.728814"
     inkscape:window-x="0"
     inkscape:window-y="27"
     inkscape:window-maximized="1"
     inkscape:current-layer="svg2408" />
  <defs
     id="defs2410">
    <linearGradient
       inkscape:collect="always"
       id="linearGradient3218">
      <stop
         style="stop-color:#536f9d;stop-opacity:1"
         offset="0"
         id="stop3220" />
      <stop
         style="stop-color:#2c4878;stop-opacity:1"
         offset="1"
         id="stop3222" />
    </linearGradient>
    <linearGradient
       inkscape:collect="always"
       id="linearGradient3096">
      <stop
         style="stop-color:#d40000;stop-opacity:1;"
         offset="0"
         id="stop3098" />
      <stop
         style="stop-color:#aa0000;stop-opacity:1"
         offset="1"
         id="stop3100" />
    </linearGradient>
    <linearGradient
       x1="45.447727"
       y1="92.539597"
       x2="45.447727"
       y2="7.0165396"
       id="ButtonShadow"
       gradientUnits="userSpaceOnUse"
       gradientTransform="scale(1.0058652,0.994169)">
      <stop
         id="stop3750"
         style="stop-color:#000000;stop-opacity:1"
         offset="0" />
      <stop
         id="stop3752"
         style="stop-color:#000000;stop-opacity:0.58823532"
         offset="1" />
    </linearGradient>
    <linearGradient
       id="linearGradient3700">
      <stop
         id="stop3702"
         style="stop-color:#ebebeb;stop-opacity:1"
         offset="0" />
      <stop
         id="stop3704"
         style="stop-color:#fafafa;stop-opacity:1"
         offset="1" />
    </linearGradient>
    <linearGradient
       x1="48"
       y1="90"
       x2="48"
       y2="5.9877172"
       id="linearGradient3706"
       xlink:href="#linearGradient3700"
       gradientUnits="userSpaceOnUse" />
    <filter
       color-interpolation-filters="sRGB"
       id="filter3174">
      <feGaussianBlur
         id="feGaussianBlur3176"
         stdDeviation="1.71" />
    </filter>
    <linearGradient
       x1="45.447727"
       y1="92.539597"
       x2="45.447727"
       y2="7.0165396"
       id="ButtonShadow-0"
       gradientUnits="userSpaceOnUse"
       gradientTransform="matrix(1.0058652,0,0,0.994169,100,0)">
      <stop
         id="stop3750-8"
         style="stop-color:#000000;stop-opacity:1"
         offset="0" />
      <stop
         id="stop3752-5"
         style="stop-color:#000000;stop-opacity:0.58823532"
         offset="1" />
    </linearGradient>
    <linearGradient
       x1="32.251034"
       y1="6.1317081"
       x2="32.251034"
       y2="90.238609"
       id="linearGradient3780"
       xlink:href="#ButtonShadow-0"
       gradientUnits="userSpaceOnUse"
       gradientTransform="matrix(1.0238095,0,0,1.0119048,-1.1428571,-98.071429)" />
    <linearGradient
       x1="32.251034"
       y1="6.1317081"
       x2="32.251034"
       y2="90.238609"
       id="linearGradient3772"
       xlink:href="#ButtonShadow-0"
       gradientUnits="userSpaceOnUse"
       gradientTransform="matrix(1.0238095,0,0,1.0119048,-1.1428571,-98.071429)" />
    <linearGradient
       x1="32.251034"
       y1="6.1317081"
       x2="32.251034"
       y2="90.238609"
       id="linearGradient3725"
       xlink:href="#ButtonShadow-0"
       gradientUnits="userSpaceOnUse"
       gradientTransform="matrix(1.0238095,0,0,1.0119048,-1.1428571,-98.071429)" />
    <linearGradient
       x1="32.251034"
       y1="6.1317081"
       x2="32.251034"
       y2="90.238609"
       id="linearGradient3721"
       xlink:href="#ButtonShadow-0"
       gradientUnits="userSpaceOnUse"
       gradientTransform="translate(0,-97)" />
    <linearGradient
       x1="32.251034"
       y1="6.1317081"
       x2="32.251034"
       y2="90.238609"
       id="linearGradient3760"
       xlink:href="#ButtonShadow-0"
       gradientUnits="userSpaceOnUse"
       gradientTransform="matrix(1.0238095,0,0,1.0119048,-1.1428571,-98.071429)" />
    <linearGradient
       id="linearGradient3737-1">
      <stop
         id="stop3739-9"
         style="stop-color:#ffffff;stop-opacity:1"
         offset="0" />
      <stop
         id="stop3741-3"
         style="stop-color:#ffffff;stop-opacity:0"
         offset="1" />
    </linearGradient>
    <radialGradient
       cx="48"
       cy="90.171875"
       r="42"
       fx="48"
       fy="90.171875"
       id="radialGradient2886"
       xlink:href="#linearGradient3737-0"
       gradientUnits="userSpaceOnUse"
       gradientTransform="matrix(1.1573129,0,0,0.99590774,-7.551021,0.1971319)" />
    <linearGradient
       id="linearGradient3737-0">
      <stop
         id="stop3739-6"
         style="stop-color:#ffffff;stop-opacity:1"
         offset="0" />
      <stop
         id="stop3741-0"
         style="stop-color:#ffffff;stop-opacity:0"
         offset="1" />
    </linearGradient>
    <linearGradient
       x1="36.357143"
       y1="6"
       x2="36.357143"
       y2="63.893143"
       id="linearGradient3923"
       xlink:href="#linearGradient3737-1"
       gradientUnits="userSpaceOnUse" />
    <linearGradient
       x1="48"
       y1="72"
       x2="48"
       y2="24"
       id="linearGradient3689-3"
       xlink:href="#linearGradient3710-7"
       gradientUnits="userSpaceOnUse" />
    <linearGradient
       id="linearGradient3710-7">
      <stop
         id="stop3712-2"
         style="stop-color:#2b4777;stop-opacity:1"
         offset="0" />
      <stop
         id="stop3714-0"
         style="stop-color:#5672a0;stop-opacity:1"
         offset="1" />
    </linearGradient>
    <linearGradient
       x1="16"
       y1="71"
       x2="80"
       y2="71"
       id="linearGradient3702-4"
       xlink:href="#linearGradient3676-1"
       gradientUnits="userSpaceOnUse"
       gradientTransform="matrix(1.25,0,0,0.5,-12,-108)" />
    <linearGradient
       id="linearGradient3676-1">
      <stop
         id="stop3678-4"
         style="stop-color:#333333;stop-opacity:0"
         offset="0" />
      <stop
         id="stop3688-5"
         style="stop-color:#000000;stop-opacity:1"
         offset="0.25" />
      <stop
         id="stop3684-4"
         style="stop-color:#000000;stop-opacity:1"
         offset="0.5" />
      <stop
         id="stop3686-9"
         style="stop-color:#000000;stop-opacity:1"
         offset="0.75" />
      <stop
         id="stop3680-3"
         style="stop-color:#333333;stop-opacity:0"
         offset="1" />
    </linearGradient>
    <linearGradient
       x1="16"
       y1="71"
       x2="80"
       y2="71"
       id="linearGradient3696-6"
       xlink:href="#linearGradient3676-1"
       gradientUnits="userSpaceOnUse"
       gradientTransform="matrix(0.5,0,0,0.5,40,-59)" />
    <linearGradient
       x1="16"
       y1="71"
       x2="80"
       y2="71"
       id="linearGradient3692-5"
       xlink:href="#linearGradient3676-1"
       gradientUnits="userSpaceOnUse"
       gradientTransform="matrix(0.875,0,0,0.5,18,-12)" />
    <linearGradient
       x1="16"
       y1="71"
       x2="80"
       y2="71"
       id="linearGradient3682-7"
       xlink:href="#linearGradient3676-1"
       gradientUnits="userSpaceOnUse"
       gradientTransform="matrix(1.125,0,0,0.5,-10,36)" />
    <clipPath
       id="clipPath3729-0">
      <path
         d="m -88,6 c -3.324,0 -6,2.676 -6,6 l 0,72 c 0,3.324 2.676,6 6,6 l 72,0 c 3.324,0 6,-2.676 6,-6 l 0,-72 c 0,-3.324 -2.676,-6 -6,-6 l -72,0 z m 42.03125,18 5.40625,0 8.46875,44.59375 4.71875,0 L -28.03125,72 -45.5,72 l 0.65625,-3.40625 5.34375,0 -1.96875,-10.53125 -20.1875,0 -6.09375,10.53125 5.28125,0 -0.625,3.40625 -13.53125,0 0.65625,-3.40625 4.21875,0 L -45.96875,24 z m -0.46875,7.78125 -13.21875,22.8125 17.59375,0 -4.375,-22.8125 z"
         inkscape:connector-curvature="0"
         id="path3731-0"
         style="fill:#ff00ff;fill-opacity:1;fill-rule:nonzero;stroke:none" />
    </clipPath>
    <filter
       x="-0.14228271"
       y="-0.14575925"
       width="1.2845654"
       height="1.2915184"
       color-interpolation-filters="sRGB"
       id="filter3733-3">
      <feGaussianBlur
         id="feGaussianBlur3735-8"
         stdDeviation="3.0366511" />
    </filter>
    <linearGradient
       id="linearGradient3737-9">
      <stop
         id="stop3739-2"
         style="stop-color:#ffffff;stop-opacity:1"
         offset="0" />
      <stop
         id="stop3741-1"
         style="stop-color:#ffffff;stop-opacity:0"
         offset="1" />
    </linearGradient>
    <clipPath
       id="clipPath3613">
      <rect
         width="84"
         height="84"
         rx="6"
         ry="6"
         x="6"
         y="6"
         id="rect3615"
         style="fill:#ffffff;fill-opacity:1;fill-rule:nonzero;stroke:none" />
    </clipPath>
    <filter
       x="-0.192"
       y="-0.192"
       width="1.3839999"
       height="1.3839999"
       color-interpolation-filters="sRGB"
       id="filter3794">
      <feGaussianBlur
         id="feGaussianBlur3796"
         stdDeviation="5.28" />
    </filter>
    <linearGradient
       x1="48"
       y1="20.220806"
       x2="48"
       y2="138.66119"
       id="linearGradient4140"
       xlink:href="#linearGradient3737-9"
       gradientUnits="userSpaceOnUse" />
    <linearGradient
       inkscape:collect="always"
       xlink:href="#linearGradient3710-7"
       id="linearGradient3070"
       gradientUnits="userSpaceOnUse"
       x1="48"
       y1="72"
       x2="48"
       y2="24"
       gradientTransform="translate(69.15254,0.8135593)" />
    <linearGradient
       inkscape:collect="always"
       xlink:href="#linearGradient3676-1"
       id="linearGradient3073"
       gradientUnits="userSpaceOnUse"
       gradientTransform="matrix(1.25,0,0,0.5,-12,-108)"
       x1="16"
       y1="71"
       x2="80"
       y2="71" />
    <linearGradient
       inkscape:collect="always"
       xlink:href="#linearGradient3676-1"
       id="linearGradient3076"
       gradientUnits="userSpaceOnUse"
       gradientTransform="matrix(0.5,0,0,0.5,40,-59)"
       x1="16"
       y1="71"
       x2="80"
       y2="71" />
    <linearGradient
       inkscape:collect="always"
       xlink:href="#linearGradient3676-1"
       id="linearGradient3079"
       gradientUnits="userSpaceOnUse"
       gradientTransform="matrix(0.875,0,0,0.5,18,-12)"
       x1="16"
       y1="71"
       x2="80"
       y2="71" />
    <linearGradient
       inkscape:collect="always"
       xlink:href="#linearGradient3676-1"
       id="linearGradient3082"
       gradientUnits="userSpaceOnUse"
       gradientTransform="matrix(1.125,0,0,0.5,-10,36)"
       x1="16"
       y1="71"
       x2="80"
       y2="71" />
    <linearGradient
       inkscape:collect="always"
       xlink:href="#linearGradient3710-7"
       id="linearGradient3090"
       gradientUnits="userSpaceOnUse"
       x1="48"
       y1="72"
       x2="48"
       y2="24"
       gradientTransform="translate(-136.27119,5.2881356)" />
    <linearGradient
       inkscape:collect="always"
       xlink:href="#linearGradient3096"
       id="linearGradient3102"
       x1="32.949154"
       y1="21.152542"
       x2="33.762711"
       y2="65.898308"
       gradientUnits="userSpaceOnUse" />
    <linearGradient
       gradientTransform="matrix(1.0238095,0,0,1.0119048,-1.1428571,-98.071429)"
       gradientUnits="userSpaceOnUse"
       xlink:href="#ButtonShadow-0-5"
       id="linearGradient2969"
       y2="90.238609"
       x2="32.251034"
       y1="6.1317081"
       x1="32.251034" />
    <linearGradient
       gradientTransform="translate(0,-97)"
       gradientUnits="userSpaceOnUse"
       xlink:href="#ButtonShadow-0-5"
       id="linearGradient3721-7"
       y2="90.238609"
       x2="32.251034"
       y1="6.1317081"
       x1="32.251034" />
    <linearGradient
       gradientTransform="matrix(1.0238095,0,0,1.0119048,-1.1428571,-98.071429)"
       gradientUnits="userSpaceOnUse"
       xlink:href="#ButtonShadow-0-5"
       id="linearGradient3725-7"
       y2="90.238609"
       x2="32.251034"
       y1="6.1317081"
       x1="32.251034" />
    <linearGradient
       gradientTransform="matrix(1.0238095,0,0,1.0119048,-1.1428571,-98.071429)"
       gradientUnits="userSpaceOnUse"
       xlink:href="#ButtonShadow-0-5"
       id="linearGradient3772-3"
       y2="90.238609"
       x2="32.251034"
       y1="6.1317081"
       x1="32.251034" />
    <linearGradient
       gradientTransform="matrix(1.0238095,0,0,1.0119048,-1.1428571,-98.071429)"
       gradientUnits="userSpaceOnUse"
       xlink:href="#ButtonShadow-0-5"
       id="linearGradient3780-8"
       y2="90.238609"
       x2="32.251034"
       y1="6.1317081"
       x1="32.251034" />
    <linearGradient
       gradientTransform="matrix(1.0058652,0,0,0.994169,100,0)"
       gradientUnits="userSpaceOnUse"
       id="ButtonShadow-0-5"
       y2="7.0165396"
       x2="45.447727"
       y1="92.539597"
       x1="45.447727">
      <stop
         offset="0"
         style="stop-color:#000000;stop-opacity:1"
         id="stop3750-8-5" />
      <stop
         offset="1"
         style="stop-color:#000000;stop-opacity:0.58823532"
         id="stop3752-5-1" />
    </linearGradient>
    <linearGradient
       gradientUnits="userSpaceOnUse"
       xlink:href="#linearGradient3928"
       id="linearGradient3934"
       y2="4.6666145"
       x2="48.40115"
       y1="61.990967"
       x1="48.40115" />
    <linearGradient
       id="linearGradient3928">
      <stop
         offset="0"
         style="stop-color:#3a240f;stop-opacity:1"
         id="stop3930" />
      <stop
         offset="1"
         style="stop-color:#3a240f;stop-opacity:0"
         id="stop3932" />
    </linearGradient>
    <linearGradient
       gradientUnits="userSpaceOnUse"
       xlink:href="#linearGradient3928"
       id="linearGradient3942"
       y2="6.0179305"
       x2="46.795631"
       y1="60.307007"
       x1="46.795631" />
    <linearGradient
       gradientUnits="userSpaceOnUse"
       id="linearGradient4309-1"
       y2="0.2393"
       x2="52.25"
       y1="47.247101"
       x1="52.25">
      <stop
         offset="0"
         style="stop-color:#d8cab2;stop-opacity:1"
         id="stop4311-3" />
      <stop
         offset="0.45710954"
         style="stop-color:#d2b98c;stop-opacity:1"
         id="stop4321-4" />
      <stop
         offset="0.48590001"
         style="stop-color:#f9f7ef;stop-opacity:1"
         id="stop4323-7" />
      <stop
         offset="0.49110001"
         style="stop-color:#ffffff;stop-opacity:1"
         id="stop4325-1" />
      <stop
         offset="0.49180001"
         style="stop-color:#fbf9f4;stop-opacity:1"
         id="stop4327-9" />
      <stop
         offset="0.4946"
         style="stop-color:#efe7d0;stop-opacity:1"
         id="stop4329-7" />
      <stop
         offset="0.49770001"
         style="stop-color:#e4d6b0;stop-opacity:1"
         id="stop4331-9" />
      <stop
         offset="0.5011"
         style="stop-color:#dac894;stop-opacity:1"
         id="stop4333-5" />
      <stop
         offset="0.50489998"
         style="stop-color:#c7a572;stop-opacity:1"
         id="stop4335-2" />
      <stop
         offset="1"
         style="stop-color:#d7c198;stop-opacity:1"
         id="stop4347-5" />
    </linearGradient>
    <linearGradient
       gradientTransform="matrix(1.0200612,0,0,1.0200612,-5.2981966,5.7562054)"
       gradientUnits="userSpaceOnUse"
       xlink:href="#linearGradient4309-1"
       id="linearGradient3277-5"
       y2="47.295406"
       x2="50.499405"
       y1="19.881863"
       x1="50.499405" />
    <linearGradient
       gradientUnits="userSpaceOnUse"
       xlink:href="#linearGradient5010"
       id="linearGradient3886"
       y2="59.878803"
       x2="123.07514"
       y1="75.788338"
       x1="123.07514" />
    <linearGradient
       gradientUnits="userSpaceOnUse"
       xlink:href="#linearGradient5010"
       id="linearGradient3878"
       y2="59.878803"
       x2="123.07514"
       y1="75.788338"
       x1="123.07514" />
    <clipPath
       id="clipPath3871-0">
      <path
         style="fill:#ffffff;fill-opacity:1;stroke:none"
         id="path3873-2"
         inkscape:connector-curvature="0"
         d="M 0,95.999997 0,156 l 96.000001,0 0,-60.000003 -96.000001,0 z M 68,116 c 9.941125,0 18,8.05888 18,18 0,9.94112 -8.058875,18 -18,18 -9.941125,0 -18,-8.05888 -18,-18 0,-9.94112 8.058875,-18 18,-18 z" />
    </clipPath>
    <linearGradient
       id="linearGradient3737-1-2">
      <stop
         offset="0"
         style="stop-color:#ffffff;stop-opacity:1"
         id="stop3739-5" />
      <stop
         offset="1"
         style="stop-color:#ffffff;stop-opacity:0"
         id="stop3741-9" />
    </linearGradient>
    <linearGradient
       gradientTransform="translate(-2,0)"
       gradientUnits="userSpaceOnUse"
       xlink:href="#linearGradient3737-1-2"
       id="linearGradient3857-6"
       y2="84.889679"
       x2="64.321426"
       y1="55.310268"
       x1="64.321426" />
    <linearGradient
       gradientUnits="userSpaceOnUse"
       xlink:href="#linearGradient5010"
       id="linearGradient3908"
       y2="59.878803"
       x2="123.07514"
       y1="75.788338"
       x1="123.07514" />
    <clipPath
       id="clipPath3894">
      <path
         style="fill:#ffffff;fill-opacity:1;stroke:none"
         id="path3896"
         inkscape:connector-curvature="0"
         d="m 128,56 c -9.94113,0 -18,8.058875 -18,18 0,9.941125 8.05887,18 18,18 9.94113,0 18,-8.058875 18,-18 0,-9.941125 -8.05887,-18 -18,-18 z m -6,4.5 12,0 0,13.75 5,0 -11,13.75 -11,-13.75 5,0 0,-13.75 z" />
    </clipPath>
    <linearGradient
       gradientTransform="matrix(0.625,0,0,0.625,25.5,33.25)"
       gradientUnits="userSpaceOnUse"
       xlink:href="#linearGradient3737"
       id="linearGradient3871"
       y2="43.780487"
       x2="65.262688"
       y1="64.205269"
       x1="65.262688" />
    <linearGradient
       gradientUnits="userSpaceOnUse"
       xlink:href="#linearGradient3778"
       id="linearGradient3844"
       y2="72.785713"
       x2="90.714287"
       y1="72.785713"
       x1="51.42857" />
    <filter
       id="filter3831"
       color-interpolation-filters="sRGB">
      <feGaussianBlur
         stdDeviation="0.6375"
         id="feGaussianBlur3833" />
    </filter>
    <clipPath
       id="clipPath3823">
      <path
         style="fill:#ffffff;fill-opacity:1;stroke:none"
         id="path3825"
         inkscape:connector-curvature="0"
         d="M 108.8125,58 C 107.25437,58 106,59.254375 106,60.8125 l 0,24.375 C 106,86.745625 107.25437,88 108.8125,88 l 24.375,0 C 134.74562,88 136,86.745625 136,85.1875 l 0,-24.375 C 136,59.254375 134.74562,58 133.1875,58 l -24.375,0 z m 7.1875,4.5 10,0 0,8.75 5,0 -10,13.75 -10,-13.75 5,0 0,-8.75 z" />
    </clipPath>
    <linearGradient
       gradientTransform="matrix(0.625,0,0,0.625,78.5,32.25)"
       gradientUnits="userSpaceOnUse"
       xlink:href="#linearGradient5010"
       id="linearGradient3812"
       y2="50.068527"
       x2="65.262688"
       y1="64.205269"
       x1="65.262688" />
    <filter
       id="filter3806"
       color-interpolation-filters="sRGB">
      <feGaussianBlur
         stdDeviation="1.2"
         id="feGaussianBlur3808" />
    </filter>
    <linearGradient
       gradientTransform="translate(0,4)"
       gradientUnits="userSpaceOnUse"
       xlink:href="#linearGradient3737"
       id="linearGradient3788"
       y2="75.095024"
       x2="70"
       y1="54"
       x1="70" />
    <linearGradient
       gradientTransform="matrix(0.9375,0,0,0.9375,-140.5,3.5)"
       gradientUnits="userSpaceOnUse"
       xlink:href="#linearGradient3778"
       id="linearGradient3773"
       y2="72"
       x2="88"
       y1="72"
       x1="56" />
    <radialGradient
       gradientTransform="matrix(1.1573129,0,0,0.99590774,-7.551021,0.1971319)"
       gradientUnits="userSpaceOnUse"
       xlink:href="#linearGradient3737-4"
       id="radialGradient2858"
       fy="90.171875"
       fx="48"
       r="42"
       cy="90.171875"
       cx="48" />
    <linearGradient
       id="linearGradient3737-4">
      <stop
         offset="0"
         style="stop-color:#ffffff;stop-opacity:1"
         id="stop3739-1" />
      <stop
         offset="1"
         style="stop-color:#ffffff;stop-opacity:0"
         id="stop3741-8" />
    </linearGradient>
    <linearGradient
       gradientTransform="matrix(0.625,0,0,0.625,28.5,31.25)"
       gradientUnits="userSpaceOnUse"
       xlink:href="#linearGradient3737"
       id="linearGradient3832"
       y2="50.068527"
       x2="65.262688"
       y1="64.205269"
       x1="65.262688" />
    <radialGradient
       gradientTransform="matrix(0.867765,0,0,0.09523809,6.3472804,36.190476)"
       gradientUnits="userSpaceOnUse"
       xlink:href="#linearGradient4426"
       id="radialGradient4432"
       fy="73.14563"
       fx="48"
       r="42"
       cy="73.14563"
       cx="48" />
    <linearGradient
       gradientTransform="matrix(-1,0,0,1,96.086934,0)"
       gradientUnits="userSpaceOnUse"
       xlink:href="#linearGradient4414"
       id="linearGradient4424"
       y2="52.263294"
       x2="8.9651041"
       y1="44.040279"
       x1="8.9651041" />
    <linearGradient
       gradientUnits="userSpaceOnUse"
       xlink:href="#linearGradient4414"
       id="linearGradient4420"
       y2="52.263294"
       x2="8.9651041"
       y1="44.040279"
       x1="8.9651041" />
    <linearGradient
       gradientTransform="matrix(-1,0,0,1,96,0)"
       gradientUnits="userSpaceOnUse"
       xlink:href="#linearGradient3737"
       id="linearGradient4402"
       y2="89.666374"
       x2="10"
       y1="40.263424"
       x1="10" />
    <linearGradient
       gradientTransform="matrix(-1,0,0,1,96,0)"
       gradientUnits="userSpaceOnUse"
       xlink:href="#linearGradient4370"
       id="linearGradient4400"
       y2="87.029526"
       x2="8"
       y1="38.127232"
       x1="8" />
    <linearGradient
       gradientUnits="userSpaceOnUse"
       xlink:href="#linearGradient3737"
       id="linearGradient4394"
       y2="89.666374"
       x2="10"
       y1="40.263424"
       x1="10" />
    <linearGradient
       gradientUnits="userSpaceOnUse"
       xlink:href="#linearGradient4370"
       id="linearGradient4376"
       y2="71.877235"
       x2="8"
       y1="38.127232"
       x1="8" />
    <linearGradient
       gradientUnits="userSpaceOnUse"
       xlink:href="#linearGradient3737"
       id="linearGradient3285"
       y2="6"
       x2="66.964287"
       y1="42"
       x1="23.142857" />
    <linearGradient
       gradientTransform="matrix(-1,0,0,1,96,0)"
       gradientUnits="userSpaceOnUse"
       xlink:href="#linearGradient4295"
       id="linearGradient3264"
       y2="18.081558"
       x2="6.3304405"
       y1="29.039698"
       x1="47.226776" />
    <linearGradient
       gradientUnits="userSpaceOnUse"
       xlink:href="#linearGradient4295"
       id="linearGradient2489"
       y2="18.202358"
       x2="6.7812738"
       y1="42"
       x1="48" />
    <linearGradient
       gradientUnits="userSpaceOnUse"
       xlink:href="#linearGradient5092"
       id="linearGradient5100"
       y2="9.4098616"
       x2="6.5962563"
       y1="32.782871"
       x1="47.079498" />
    <filter
       id="filter4362"
       color-interpolation-filters="sRGB"
       height="1.8525631"
       width="1.6231135"
       y="-0.42628157"
       x="-0.31155673">
      <feGaussianBlur
         stdDeviation="6.2124381"
         id="feGaussianBlur4364" />
    </filter>
    <filter
       id="filter3174-6"
       color-interpolation-filters="sRGB">
      <feGaussianBlur
         stdDeviation="1.71"
         id="feGaussianBlur3176-1" />
    </filter>
    <linearGradient
       gradientUnits="userSpaceOnUse"
       xlink:href="#linearGradient4289"
       id="linearGradient3706-1"
       y2="39.852562"
       x2="54.187183"
       y1="90"
       x1="54.187183" />
    <linearGradient
       id="linearGradient3737">
      <stop
         offset="0"
         style="stop-color:#ffffff;stop-opacity:1"
         id="stop3739" />
      <stop
         offset="1"
         style="stop-color:#ffffff;stop-opacity:0"
         id="stop3741" />
    </linearGradient>
    <linearGradient
       gradientTransform="scale(1.0058652,0.994169)"
       gradientUnits="userSpaceOnUse"
       id="ButtonShadow-2"
       y2="7.0165396"
       x2="45.447727"
       y1="92.539597"
       x1="45.447727">
      <stop
         offset="0"
         style="stop-color:#000000;stop-opacity:1"
         id="stop3750-5" />
      <stop
         offset="1"
         style="stop-color:#000000;stop-opacity:0.58823532"
         id="stop3752-1" />
    </linearGradient>
    <linearGradient
       id="linearGradient5010">
      <stop
         offset="0"
         style="stop-color:#000000;stop-opacity:1"
         id="stop5012" />
      <stop
         offset="1"
         style="stop-color:#000000;stop-opacity:0"
         id="stop5014" />
    </linearGradient>
    <linearGradient
       id="linearGradient5092">
      <stop
         offset="0"
         style="stop-color:#be9f6a;stop-opacity:1"
         id="stop5094" />
      <stop
         offset="1"
         style="stop-color:#e5d2b2;stop-opacity:1"
         id="stop5096" />
    </linearGradient>
    <linearGradient
       id="linearGradient4289">
      <stop
         offset="0"
         style="stop-color:#996c3b;stop-opacity:1"
         id="stop4291" />
      <stop
         offset="1"
         style="stop-color:#c19e6d;stop-opacity:1"
         id="stop4293" />
    </linearGradient>
    <linearGradient
       id="linearGradient4295">
      <stop
         offset="0"
         style="stop-color:#b88f56;stop-opacity:1"
         id="stop4297" />
      <stop
         offset="1"
         style="stop-color:#d9bd98;stop-opacity:1"
         id="stop4299" />
    </linearGradient>
    <linearGradient
       id="linearGradient4370">
      <stop
         offset="0"
         style="stop-color:#8a5b30;stop-opacity:1"
         id="stop4372" />
      <stop
         offset="1"
         style="stop-color:#8a5b30;stop-opacity:0"
         id="stop4374" />
    </linearGradient>
    <linearGradient
       id="linearGradient4414">
      <stop
         offset="0"
         style="stop-color:#dac3a2;stop-opacity:1"
         id="stop4416" />
      <stop
         offset="1"
         style="stop-color:#dac3a2;stop-opacity:0"
         id="stop4418" />
    </linearGradient>
    <linearGradient
       id="linearGradient4426">
      <stop
         offset="0"
         style="stop-color:#71461e;stop-opacity:1"
         id="stop4428" />
      <stop
         offset="1"
         style="stop-color:#71461e;stop-opacity:0"
         id="stop4430" />
    </linearGradient>
    <linearGradient
       id="linearGradient3778">
      <stop
         offset="0"
         style="stop-color:#499119;stop-opacity:1"
         id="stop3780" />
      <stop
         offset="1"
         style="stop-color:#8fd625;stop-opacity:1"
         id="stop3782" />
    </linearGradient>
    <linearGradient
       inkscape:collect="always"
       xlink:href="#linearGradient3778"
       id="linearGradient5209"
       gradientUnits="userSpaceOnUse"
       x1="51.42857"
       y1="72.785713"
       x2="90.714287"
       y2="72.785713" />
    <linearGradient
       inkscape:collect="always"
       xlink:href="#linearGradient5010"
       id="linearGradient5211"
       gradientUnits="userSpaceOnUse"
       x1="123.07514"
       y1="75.788338"
       x2="123.07514"
       y2="59.878803" />
    <linearGradient
       inkscape:collect="always"
       xlink:href="#linearGradient5010"
       id="linearGradient5213"
       gradientUnits="userSpaceOnUse"
       x1="123.07514"
       y1="75.788338"
       x2="123.07514"
       y2="59.878803" />
    <linearGradient
       inkscape:collect="always"
       xlink:href="#linearGradient5010"
       id="linearGradient5215"
       gradientUnits="userSpaceOnUse"
       x1="123.07514"
       y1="75.788338"
       x2="123.07514"
       y2="59.878803" />
    <linearGradient
       inkscape:collect="always"
       xlink:href="#linearGradient3737"
       id="linearGradient5217"
       gradientUnits="userSpaceOnUse"
       gradientTransform="matrix(0.625,0,0,0.625,25.5,33.25)"
       x1="65.262688"
       y1="64.205269"
       x2="65.262688"
       y2="43.780487" />
    <linearGradient
       inkscape:collect="always"
       xlink:href="#linearGradient3737-1-2"
       id="linearGradient5219"
       gradientUnits="userSpaceOnUse"
       gradientTransform="translate(-2,0)"
       x1="64.321426"
       y1="55.310268"
       x2="64.321426"
       y2="84.889679" />
    <radialGradient
       inkscape:collect="always"
       xlink:href="#linearGradient3737-0"
       id="radialGradient5227"
       gradientUnits="userSpaceOnUse"
       gradientTransform="matrix(1.1573129,0,0,0.99590774,-7.551021,0.1971319)"
       cx="48"
       cy="90.171875"
       fx="48"
       fy="90.171875"
       r="42" />
    <linearGradient
       inkscape:collect="always"
       xlink:href="#linearGradient3737-1"
       id="linearGradient5230"
       gradientUnits="userSpaceOnUse"
       x1="36.357143"
       y1="6"
       x2="36.357143"
       y2="63.893143" />
    <linearGradient
       inkscape:collect="always"
       xlink:href="#linearGradient3700"
       id="linearGradient5233"
       gradientUnits="userSpaceOnUse"
       x1="48"
       y1="90"
       x2="48"
       y2="5.9877172" />
    <linearGradient
       inkscape:collect="always"
       xlink:href="#linearGradient3218"
       id="linearGradient3224"
       x1="40.913128"
       y1="32.868969"
       x2="41.864594"
       y2="76.694252"
       gradientUnits="userSpaceOnUse" />
    <linearGradient
       inkscape:collect="always"
       xlink:href="#linearGradient3218"
       id="linearGradient3226"
       gradientUnits="userSpaceOnUse"
       x1="40.913128"
       y1="32.868969"
       x2="41.864594"
       y2="76.694252" />
  </defs>
  <metadata
     id="metadata2413">
    <rdf:RDF>
      <cc:Work
         rdf:about="">
        <dc:format>image/svg+xml</dc:format>
        <dc:type
           rdf:resource="http://purl.org/dc/dcmitype/StillImage" />
        <dc:title></dc:title>
      </cc:Work>
    </rdf:RDF>
  </metadata>
  <g
     id="layer2"
     style="display:none">
    <rect
       width="86"
       height="85"
       rx="6"
       ry="6"
       x="5"
       y="7"
       id="rect3745"
       style="opacity:0.9;fill:url(#ButtonShadow);fill-opacity:1;fill-rule:nonzero;stroke:none;filter:url(#filter3174)" />
  </g>
  <g
     id="layer6"
     style="display:inline">
    <path
       d="m 12,-95.03125 c -5.5110903,0 -10.03125,4.52016 -10.03125,10.03125 l 0,71 c 0,5.5110902 4.5201598,10.03125 10.03125,10.03125 l 72,0 c 5.51109,0 10.03125,-4.5201597 10.03125,-10.03125 l 0,-71 c 0,-5.51109 -4.52016,-10.03125 -10.03125,-10.03125 l -72,0 z"
       transform="scale(1,-1)"
       id="path3786"
       style="opacity:0.07999998;fill:url(#linearGradient3760);fill-opacity:1;fill-rule:nonzero;stroke:none;display:inline" />
    <path
       d="m 12,-94.03125 c -4.971633,0 -9.03125,4.059617 -9.03125,9.03125 l 0,71 c 0,4.9716329 4.0596171,9.03125 9.03125,9.03125 l 72,0 c 4.971633,0 9.03125,-4.059617 9.03125,-9.03125 l 0,-71 c 0,-4.971633 -4.059617,-9.03125 -9.03125,-9.03125 l -72,0 z"
       transform="scale(1,-1)"
       id="path3778"
       style="opacity:0.1;fill:url(#linearGradient3780);fill-opacity:1;fill-rule:nonzero;stroke:none;display:inline" />
    <path
       d="m 12,-93 c -4.4091333,0 -8,3.590867 -8,8 l 0,71 c 0,4.4091333 3.5908667,8 8,8 l 72,0 c 4.409133,0 8,-3.5908667 8,-8 l 0,-71 c 0,-4.409133 -3.590867,-8 -8,-8 l -72,0 z"
       transform="scale(1,-1)"
       id="path3770"
       style="opacity:0.2;fill:url(#linearGradient3772);fill-opacity:1;fill-rule:nonzero;stroke:none;display:inline" />
    <rect
       width="86"
       height="85"
       rx="7"
       ry="7"
       x="5"
       y="-92"
       transform="scale(1,-1)"
       id="rect3723"
       style="opacity:0.3;fill:url(#linearGradient3725);fill-opacity:1;fill-rule:nonzero;stroke:none;display:inline" />
    <rect
       width="84"
       height="84"
       rx="6"
       ry="6"
       x="6"
       y="-91"
       transform="scale(1,-1)"
       id="rect3716"
       style="opacity:0.45;fill:url(#linearGradient3721);fill-opacity:1;fill-rule:nonzero;stroke:none;display:inline" />
  </g>
  <rect
     style="fill:url(#linearGradient5233);fill-opacity:1;fill-rule:nonzero;stroke:none"
     id="rect2419"
     y="6"
     x="6"
     ry="6"
     rx="6"
     height="84"
     width="84" />
  <path
     style="opacity:0.5;fill:url(#linearGradient5230);fill-opacity:1;fill-rule:nonzero;stroke:none;display:inline"
     id="rect3728"
     inkscape:connector-curvature="0"
     d="M 12,6 C 8.676,6 6,8.676 6,12 l 0,2 0,68 0,2 c 0,0.334721 0.04135,0.6507 0.09375,0.96875 0.0487,0.295596 0.09704,0.596915 0.1875,0.875 0.0099,0.03038 0.02089,0.0636 0.03125,0.09375 0.09886,0.287771 0.23488,0.547452 0.375,0.8125 0.144592,0.273507 0.315616,0.535615 0.5,0.78125 0.184384,0.245635 0.373776,0.473472 0.59375,0.6875 0.439947,0.428056 0.94291,0.814526 1.5,1.09375 0.278545,0.139612 0.573473,0.246947 0.875,0.34375 -0.256202,-0.100222 -0.486711,-0.236272 -0.71875,-0.375 -0.0074,-0.0044 -0.02387,0.0045 -0.03125,0 -0.03193,-0.0193 -0.06229,-0.04251 -0.09375,-0.0625 -0.120395,-0.0767 -0.231023,-0.163513 -0.34375,-0.25 -0.106173,-0.0808 -0.213281,-0.161112 -0.3125,-0.25 C 8.47832,88.557317 8.30879,88.373362 8.15625,88.1875 8.048671,88.057245 7.937856,87.922215 7.84375,87.78125 7.81866,87.74287 7.8053,87.69538 7.78125,87.65625 7.71649,87.553218 7.651022,87.451733 7.59375,87.34375 7.492742,87.149044 7.388075,86.928049 7.3125,86.71875 7.3045,86.69694 7.28891,86.6782 7.28125,86.65625 7.24942,86.5643 7.24545,86.469419 7.21875,86.375 7.188418,86.268382 7.148361,86.171969 7.125,86.0625 7.052121,85.720988 7,85.364295 7,85 L 7,83 7,15 7,13 C 7,10.218152 9.218152,8 12,8 l 2,0 68,0 2,0 c 2.781848,0 5,2.218152 5,5 l 0,2 0,68 0,2 c 0,0.364295 -0.05212,0.720988 -0.125,1.0625 -0.04415,0.206893 -0.08838,0.397658 -0.15625,0.59375 -0.0077,0.02195 -0.0233,0.04069 -0.03125,0.0625 -0.06274,0.173739 -0.138383,0.367449 -0.21875,0.53125 -0.04158,0.0828 -0.07904,0.169954 -0.125,0.25 -0.0546,0.09721 -0.126774,0.18835 -0.1875,0.28125 -0.09411,0.140965 -0.204921,0.275995 -0.3125,0.40625 -0.143174,0.17445 -0.303141,0.346998 -0.46875,0.5 -0.01117,0.0102 -0.01998,0.02115 -0.03125,0.03125 -0.138386,0.125556 -0.285091,0.234436 -0.4375,0.34375 -0.102571,0.07315 -0.204318,0.153364 -0.3125,0.21875 -0.0074,0.0045 -0.02384,-0.0044 -0.03125,0 -0.232039,0.138728 -0.462548,0.274778 -0.71875,0.375 0.301527,-0.0968 0.596455,-0.204138 0.875,-0.34375 0.55709,-0.279224 1.060053,-0.665694 1.5,-1.09375 0.219973,-0.214028 0.409366,-0.441865 0.59375,-0.6875 0.184384,-0.245635 0.355408,-0.507743 0.5,-0.78125 0.14012,-0.265048 0.276135,-0.524729 0.375,-0.8125 0.01041,-0.03078 0.02133,-0.06274 0.03125,-0.09375 0.09046,-0.278085 0.1388,-0.579404 0.1875,-0.875 C 89.95865,84.6507 90,84.334721 90,84 l 0,-2 0,-68 0,-2 C 90,8.676 87.324,6 84,6 L 12,6 z" />
  <path
     style="opacity:0.4;fill:url(#radialGradient5227);fill-opacity:1;fill-rule:nonzero;stroke:none;display:inline"
     id="path3615"
     inkscape:connector-curvature="0"
     d="M 12,90 C 8.676,90 6,87.324 6,84 L 6,82 6,14 6,12 c 0,-0.334721 0.04135,-0.6507 0.09375,-0.96875 0.0487,-0.295596 0.09704,-0.596915 0.1875,-0.875 C 6.29113,10.12587 6.302142,10.09265 6.3125,10.0625 6.411365,9.774729 6.5473802,9.515048 6.6875,9.25 6.8320918,8.976493 7.0031161,8.714385 7.1875,8.46875 7.3718839,8.223115 7.5612765,7.995278 7.78125,7.78125 8.221197,7.353194 8.72416,6.966724 9.28125,6.6875 9.559795,6.547888 9.8547231,6.440553 10.15625,6.34375 9.9000482,6.443972 9.6695391,6.580022 9.4375,6.71875 c -0.00741,0.0044 -0.023866,-0.0045 -0.03125,0 -0.031933,0.0193 -0.062293,0.04251 -0.09375,0.0625 -0.120395,0.0767 -0.2310226,0.163513 -0.34375,0.25 -0.1061728,0.0808 -0.2132809,0.161112 -0.3125,0.25 C 8.4783201,7.442683 8.3087904,7.626638 8.15625,7.8125 8.0486711,7.942755 7.9378561,8.077785 7.84375,8.21875 7.818661,8.25713 7.805304,8.30462 7.78125,8.34375 7.716487,8.446782 7.6510225,8.548267 7.59375,8.65625 7.4927417,8.850956 7.3880752,9.071951 7.3125,9.28125 7.30454,9.30306 7.288911,9.3218 7.28125,9.34375 7.2494249,9.4357 7.2454455,9.530581 7.21875,9.625 7.1884177,9.731618 7.1483606,9.828031 7.125,9.9375 7.0521214,10.279012 7,10.635705 7,11 l 0,2 0,68 0,2 c 0,2.781848 2.2181517,5 5,5 l 2,0 68,0 2,0 c 2.781848,0 5,-2.218152 5,-5 l 0,-2 0,-68 0,-2 C 89,10.635705 88.94788,10.279012 88.875,9.9375 88.83085,9.730607 88.78662,9.539842 88.71875,9.34375 88.71105,9.3218 88.69545,9.30306 88.6875,9.28125 88.62476,9.107511 88.549117,8.913801 88.46875,8.75 88.42717,8.6672 88.38971,8.580046 88.34375,8.5 88.28915,8.40279 88.216976,8.31165 88.15625,8.21875 88.06214,8.077785 87.951329,7.942755 87.84375,7.8125 87.700576,7.63805 87.540609,7.465502 87.375,7.3125 87.36383,7.3023 87.35502,7.29135 87.34375,7.28125 87.205364,7.155694 87.058659,7.046814 86.90625,6.9375 86.803679,6.86435 86.701932,6.784136 86.59375,6.71875 c -0.0074,-0.0045 -0.02384,0.0044 -0.03125,0 -0.232039,-0.138728 -0.462548,-0.274778 -0.71875,-0.375 0.301527,0.0968 0.596455,0.204138 0.875,0.34375 0.55709,0.279224 1.060053,0.665694 1.5,1.09375 0.219973,0.214028 0.409366,0.441865 0.59375,0.6875 0.184384,0.245635 0.355408,0.507743 0.5,0.78125 0.14012,0.265048 0.276135,0.524729 0.375,0.8125 0.01041,0.03078 0.02133,0.06274 0.03125,0.09375 0.09046,0.278085 0.1388,0.579404 0.1875,0.875 C 89.95865,11.3493 90,11.665279 90,12 l 0,2 0,68 0,2 c 0,3.324 -2.676,6 -6,6 l -72,0 z" />
  <g
     id="layer3">
    <rect
       width="66"
       height="66"
       rx="12"
       ry="12"
       x="15"
       y="15"
       clip-path="url(#clipPath3613)"
       id="rect3171"
       style="opacity:0.5;fill:url(#linearGradient4140);fill-opacity:1;fill-rule:nonzero;stroke:#ffffff;stroke-width:0.5;stroke-linecap:round;stroke-linejoin:miter;stroke-miterlimit:4;stroke-opacity:1;stroke-dasharray:none;stroke-dashoffset:0;display:inline;filter:url(#filter3794)" />
  </g>
  <text
     sodipodi:linespacing="125%"
     style="font-size:65.84326935px;font-style:italic;font-variant:normal;font-weight:normal;font-stretch:normal;text-align:start;line-height:125%;writing-mode:lr-tb;text-anchor:start;opacity:0.6;fill:none;stroke:#ffffff;stroke-width:2;stroke-miterlimit:4;stroke-dasharray:none;display:inline;filter:url(#filter3733-3);font-family:DejaVu Serif;-inkscape-font-specification:Abandoned Bitplane Italic"
     xml:space="preserve"
     id="text3717"
     clip-path="url(#clipPath3729-0)"
     transform="translate(100,0)"
     y="72"
     x="-71.563293"><tspan
       style="fill:none;stroke:#ffffff;stroke-width:2;stroke-miterlimit:4;stroke-dasharray:none"
       id="tspan3719"
       y="72"
       x="-71.563293">A</tspan></text>
  <rect
     style="opacity:0.2;color:#000000;fill:url(#linearGradient3082);fill-opacity:1;stroke:none;stroke-width:2;marker:none;visibility:visible;display:inline;overflow:visible;enable-background:accumulate"
     id="rect2902"
     y="71"
     x="8"
     height="1"
     width="72" />
  <rect
     style="opacity:0.12000002;color:#000000;fill:url(#linearGradient3079);fill-opacity:1;stroke:none;stroke-width:2;marker:none;visibility:visible;display:inline;overflow:visible;enable-background:accumulate"
     id="rect3690"
     y="23"
     x="32"
     height="1"
     width="56" />
  <rect
     style="opacity:0.15;color:#000000;fill:url(#linearGradient3076);fill-opacity:1;stroke:none;stroke-width:2;marker:none;visibility:visible;display:inline;overflow:visible;enable-background:accumulate"
     id="rect3694"
     transform="matrix(0,1,-1,0,0,0)"
     y="-24"
     x="48"
     height="1"
     width="32" />
  <rect
     style="opacity:0.15;color:#000000;fill:url(#linearGradient3073);fill-opacity:1;stroke:none;stroke-width:2;marker:none;visibility:visible;display:inline;overflow:visible;enable-background:accumulate"
     id="rect3698"
     transform="matrix(0,1,-1,0,0,0)"
     y="-73"
     x="8"
     height="1"
     width="80" />
  <g
     style="font-size:55.004673px;font-style:normal;font-variant:normal;font-weight:500;font-stretch:normal;text-align:start;line-height:125%;letter-spacing:0px;word-spacing:0px;writing-mode:lr-tb;text-anchor:start;fill:#000000;fill-opacity:1;stroke:none;font-family:Boutros Ads;-inkscape-font-specification:Boutros Ads Medium"
     id="text3060"
     transform="matrix(1.0702817,0,0,1,0.8841849,0)">
    <path
       id="path3093"
       style="fill:url(#linearGradient3102);fill-opacity:1"
       d="m 36.905943,54.706091 c -1.1e-5,3.778004 -0.384972,6.875595 -1.154884,9.292782 -0.69831,2.238152 -2.112817,5.01345 -4.243524,8.325903 -6e-6,-14.019732 -0.528208,-24.145094 -1.584608,-30.376116 l 5.237262,-5.640128 c 1.163826,6.571226 1.745743,12.703739 1.745754,18.397559 m 2.121762,-25.353716 -3.061784,4.162951 c -3.115505,0.626719 -5.953472,1.754743 -8.513907,3.384077 0.572964,-1.414472 1.423458,-2.69469 2.551487,-3.840659 -1.611468,-0.250633 -2.417199,-0.966839 -2.417198,-2.14862 -1e-6,-1.718853 0.868398,-3.303458 2.605202,-4.753821 1.665175,-1.396556 3.375117,-2.094857 5.12983,-2.094905 1.432403,4.8e-5 2.148609,0.510345 2.14862,1.530892 -1.1e-5,0.805778 -0.662501,1.763703 -1.987473,2.873779 -0.984793,-0.555016 -1.897955,-0.832546 -2.739491,-0.83259 -0.411825,4.4e-5 -1.029552,0.08957 -1.853185,0.268577 1.16383,1.27131 2.676816,1.906943 4.53896,1.906901 0.895249,4.2e-5 2.094893,-0.152152 3.598939,-0.456582"
       inkscape:connector-curvature="0" />
  </g>
  <g
     id="layer2-4"
     style="display:none"
     transform="translate(-112.88136,15.198985)">
    <path
       d="M 11,7 48,5 85,7 c 3.324,0 6,2.676 6,6 l 0,73 c 0,3.324 -2.676,6 -6,6 L 11,92 C 7.676,92 5,89.324 5,86 L 5,13 C 5,9.676 7.676,7 11,7 z"
       inkscape:connector-curvature="0"
       id="rect3745-0"
       style="opacity:0.9;fill:url(#ButtonShadow-2);fill-opacity:1;fill-rule:nonzero;stroke:none;filter:url(#filter3174-6)" />
  </g>
  <g
     id="layer4"
     style="display:none"
     transform="translate(-112.88136,15.198985)">
    <rect
       width="30"
       height="30"
       rx="2.8125"
       ry="2.8125"
       x="-86"
       y="56"
       transform="matrix(0,-1,1,0,0,4)"
       id="rect3790"
       style="opacity:0.6;fill:#000000;fill-opacity:1;stroke:none;filter:url(#filter3806)" />
    <rect
       width="30"
       height="30"
       rx="2.8125"
       ry="2.8125"
       x="-88"
       y="56"
       transform="matrix(0,-1,1,0,0,0)"
       id="rect2993"
       style="fill:url(#linearGradient3773);fill-opacity:1;stroke:none" />
    <path
       d="M 58.8125,58 C 57.254375,58 56,59.254375 56,60.8125 l 0,24.375 c 0,0.873066 0.410816,1.641163 1.03125,2.15625 C 57.02841,87.289908 57,87.242129 57,87.1875 l 0,-24.375 C 57,61.254375 58.17075,60 59.625,60 l 22.75,0 C 83.82925,60 85,61.254375 85,62.8125 l 0,24.375 c 0,0.05463 -0.02841,0.102408 -0.03125,0.15625 C 85.589184,86.828663 86,86.060566 86,85.1875 l 0,-24.375 C 86,59.254375 84.745625,58 83.1875,58 l -24.375,0 z"
       inkscape:connector-curvature="0"
       id="rect3775"
       style="opacity:0.5;fill:url(#linearGradient3788);fill-opacity:1;stroke:none" />
    <path
       d="m 116,63.5 0,8.75 -5,0 10,13.75 10,-13.75 -5,0 0,-8.75 -10,0 z"
       inkscape:connector-curvature="0"
       transform="translate(-50,0)"
       clip-path="url(#clipPath3823)"
       id="path3810"
       style="opacity:0.6;fill:url(#linearGradient3812);fill-opacity:1;fill-rule:nonzero;stroke:none;display:inline;filter:url(#filter3831)" />
    <path
       d="m 66,62.5 0,8.75 -5,0 10,13.75 10,-13.75 -5,0 0,-8.75 -10,0 z"
       inkscape:connector-curvature="0"
       id="path4278"
       style="fill:url(#linearGradient3832);fill-opacity:1;fill-rule:nonzero;stroke:none;display:inline" />
  </g>
  <g
     transform="matrix(1.4711766,0,0,0.77967523,-7.3562404,0)"
     style="font-size:67.52152252px;font-style:normal;font-variant:normal;font-weight:normal;font-stretch:normal;text-align:start;line-height:125%;letter-spacing:0px;word-spacing:0px;writing-mode:lr-tb;text-anchor:start;fill:url(#linearGradient3224);fill-opacity:1;stroke:none;font-family:AlHor;-inkscape-font-specification:AlHor"
     id="text3211">
    <path
       d="m 45.908449,37.957239 c -10e-6,0.850324 -0.487665,1.913162 -1.462966,3.188517 -0.975319,1.250448 -1.838093,1.875646 -2.588325,1.875597 l -0.937799,-0.900286 c -0.67522,-0.675165 -1.012827,-1.187828 -1.012823,-1.537991 l 0,-0.750239 c -4e-6,-0.124988 0.08752,-0.300043 0.262584,-0.525167 l 0.300095,-0.337608 0.975311,-1.012823 -2.100669,-1.838086 -0.337608,-1.050334 c -3e-6,-0.725174 0.337604,-1.487916 1.012823,-2.28823 l 0.600191,-0.562679 0.637703,-0.600191 1.763062,-1.275407 1.950622,0 -0.337607,0.562679 -1.350431,1.200383 -0.600191,0.637703 -0.56268,0.787751 0.787752,-0.112535 1.012822,-0.300096 0.900287,-0.262584 0.825263,-0.337607 c -0.125049,0.650265 -0.462657,1.32548 -1.012822,2.025645 l -1.200383,1.575502 c 0.500151,0.125096 1.012814,0.387679 1.53799,0.787752 0.550166,0.400182 0.862765,0.750293 0.937799,1.050334 m 6.001913,50.941238 0.03751,0.600191 c -1.6e-5,0.350114 -0.112552,0.787753 -0.337607,1.312919 -0.225088,0.525168 -0.712743,0.862775 -1.462967,1.012822 -1.650539,0 -2.7884,-1.400445 -3.413588,-4.201339 l -1.087847,-5.476745 c -0.72524,-3.376063 -1.45047,-7.089744 -2.175693,-11.141052 -0.350119,-1.900583 -0.662718,-3.738667 -0.937799,-5.514257 -0.250086,-1.775538 -0.500166,-3.651134 -0.750239,-5.626794 -0.675221,-5.501716 -1.012828,-9.940627 -1.012823,-13.316745 -5e-6,-0.575137 0.200058,-0.975264 0.600191,-1.200382 l 0.825263,2.250717 c -6e-6,1.900648 0.125034,3.463645 0.37512,4.688995 0.27508,1.225429 0.6502,2.050691 1.125359,2.475789 l -0.150048,-1.162871 -0.225072,-2.513301 -0.112536,-2.288229 0,-0.937799 0.07502,-1.200383 c 0.07502,-0.375074 0.312592,-0.662665 0.712727,-0.862775 0.550167,4.6e-5 0.912782,0.237622 1.087847,0.712727 l 0.225072,0.825264 c 0.05001,0.275131 0.07501,0.650251 0.07502,1.125358 l 0,1.237895 c 0.675205,7.127307 1.600499,14.004492 2.775885,20.631576 0.300082,1.85061 0.562666,3.476126 0.787751,4.876555 0.250066,1.375453 0.537657,2.863426 0.862775,4.463922 0.575168,2.825911 1.275391,5.901888 2.100669,9.227942"
       style="font-weight:bold;fill:url(#linearGradient3226);fill-opacity:1;-inkscape-font-specification:AlHor Bold"
       id="path3216"
       inkscape:connector-curvature="0" />
  </g>
</svg>
